<svg xmlns="http://www.w3.org/2000/svg" viewBox="0 0 238.69 55.73"><defs><style>.cls-1{fill:#ffa600;}.cls-2{fill:#b3cb2d;}.cls-3{fill:#191715;}</style></defs><path class="cls-1" d="M40,28.69v-6a1,1,0,0,0-1.55-.82L14.69,38.31a4.11,4.11,0,0,1-6.45-3.38V27a8.23,8.23,0,0,1,3.55-6.76l7.08-4.89A4.07,4.07,0,0,0,20.63,12V6.38l0-5.39A1,1,0,0,0,19.1.18l-5,3.42A4.08,4.08,0,0,0,12.38,7V9.84L6.3,14A14.57,14.57,0,0,0,0,26v8.89A12.36,12.36,0,0,0,19.38,45.09l18.9-13A4.09,4.09,0,0,0,40,28.69Z"/><path class="cls-2" d="M33,10.63l-18.9,13A4.09,4.09,0,0,0,12.35,27v6a1,1,0,0,0,1.55.81L37.71,17.41a4.11,4.11,0,0,1,6.44,3.38v7.9a8.25,8.25,0,0,1-3.55,6.77l-6.33,4.36-.72.5h0a4.06,4.06,0,0,0-1.75,3.34V45.2l0,9.48a1,1,0,0,0,1.55.81l5-3.43A4.05,4.05,0,0,0,40,48.72V45.87l6.06-4.18a14.58,14.58,0,0,0,6.29-12V20.8A12.35,12.35,0,0,0,33,10.63Z"/><path class="cls-3" d="M76.14,54.2H72.81l-.55,1.4H71.14l2.7-6.79h1.27l2.7,6.79H76.69Zm-3-.91h2.74L74.47,49.7Z"/><path class="cls-3" d="M82.31,54.93a2.43,2.43,0,0,1-1.75.8A1.39,1.39,0,0,1,79,54.16V50.69h.92v3.16c0,.82.4,1.06,1,1.06a1.79,1.79,0,0,0,1.37-.69V50.69h.92V55.6h-.92Z"/><path class="cls-3" d="M85.37,54.52v-3h-.81v-.8h.81V49.34h.92v1.35h1v.8h-1v2.82c0,.35.16.6.48.6a.72.72,0,0,0,.5-.19l.23.69a1.32,1.32,0,0,1-1,.32A1.07,1.07,0,0,1,85.37,54.52Z"/><path class="cls-3" d="M88.51,53.14A2.49,2.49,0,1,1,91,55.73,2.45,2.45,0,0,1,88.51,53.14Zm4,0A1.54,1.54,0,1,0,91,54.91,1.59,1.59,0,0,0,92.52,53.14Z"/><path class="cls-3" d="M101.13,52.32c0-.56-.26-.94-.86-.94a1.59,1.59,0,0,0-1.22.7V55.6h-.92V52.32c0-.56-.24-.94-.86-.94a1.62,1.62,0,0,0-1.21.71V55.6h-.91V50.69h.91v.69a2.14,2.14,0,0,1,1.59-.82,1.28,1.28,0,0,1,1.34.92,2,2,0,0,1,1.66-.92c.9,0,1.39.5,1.39,1.49V55.6h-.91Z"/><path class="cls-3" d="M103.7,53.14a2.49,2.49,0,1,1,2.49,2.59A2.45,2.45,0,0,1,103.7,53.14Zm4,0a1.54,1.54,0,1,0-1.52,1.77A1.59,1.59,0,0,0,107.71,53.14Z"/><path class="cls-3" d="M110.52,54.52v-3h-.81v-.8h.81V49.34h.92v1.35h1v.8h-1v2.82c0,.35.16.6.48.6a.74.74,0,0,0,.5-.19l.23.69a1.32,1.32,0,0,1-1,.32A1.07,1.07,0,0,1,110.52,54.52Z"/><path class="cls-3" d="M113.82,49.28a.6.6,0,0,1,.59-.59.58.58,0,0,1,.59.59.58.58,0,0,1-.59.58A.59.59,0,0,1,113.82,49.28Zm.14,1.41h.92V55.6H114Z"/><path class="cls-3" d="M116.12,50.69h1l1.54,3.86,1.54-3.86h1l-2,4.91h-1Z"/><path class="cls-3" d="M124.57,50.56a2.42,2.42,0,0,1,2.4,2.66v.23h-3.89A1.61,1.61,0,0,0,124.75,55a2,2,0,0,0,1.45-.58l.43.6a2.76,2.76,0,0,1-2,.74,2.59,2.59,0,0,1-.09-5.17Zm-1.5,2.22h3a1.45,1.45,0,0,0-1.5-1.46A1.5,1.5,0,0,0,123.07,52.78Z"/><path class="cls-3" d="M132.8,50.39V55.6h-1V48.81h1.05l3.7,5.09V48.81h1V55.6h-1Z"/><path class="cls-3" d="M141.7,50.56a2.41,2.41,0,0,1,2.39,2.66v.23H140.2A1.62,1.62,0,0,0,141.87,55a2.09,2.09,0,0,0,1.46-.58l.43.6a2.77,2.77,0,0,1-2,.74,2.59,2.59,0,0,1-.08-5.17Zm-1.51,2.22h3a1.45,1.45,0,0,0-1.5-1.46A1.5,1.5,0,0,0,140.19,52.78Z"/><path class="cls-3" d="M145.94,54.52v-3h-.82v-.8h.82V49.34h.91v1.35h1v.8h-1v2.82c0,.35.17.6.48.6a.72.72,0,0,0,.5-.19l.23.69a1.29,1.29,0,0,1-.95.32A1.07,1.07,0,0,1,145.94,54.52Z"/><path class="cls-3" d="M152.43,51.83l-1.21,3.77h-.95l-1.54-4.91h1l1.12,3.74L152,50.69h.79l1.23,3.74,1.12-3.74h1l-1.55,4.91h-1Z"/><path class="cls-3" d="M157.16,53.14a2.49,2.49,0,1,1,2.48,2.59A2.44,2.44,0,0,1,157.16,53.14Zm4,0a1.55,1.55,0,1,0-1.53,1.77A1.59,1.59,0,0,0,161.17,53.14Z"/><path class="cls-3" d="M163.8,50.69h.91v.75a2.1,2.1,0,0,1,1.61-.87v.93a1.42,1.42,0,0,0-.31,0,1.78,1.78,0,0,0-1.3.71V55.6h-.91Z"/><path class="cls-3" d="M169.41,53.49l-.75.75V55.6h-.91V48.81h.91v4.37L171,50.69h1.16l-2.12,2.23,2.14,2.68H171Z"/><path class="cls-3" d="M69.36,27.88A14,14,0,0,1,83.74,13.5a12.63,12.63,0,0,1,11.12,5.84.44.44,0,0,1-.17.63l-3.37,1.72a.45.45,0,0,1-.57-.14,8.36,8.36,0,0,0-7-3.72c-5.29,0-9.38,4.21-9.38,10.05s4.09,10.05,9.38,10.05a8.29,8.29,0,0,0,7-3.71.44.44,0,0,1,.57-.15l3.36,1.72a.43.43,0,0,1,.17.63,12.65,12.65,0,0,1-11.11,5.84A14,14,0,0,1,69.36,27.88Z"/><path class="cls-3" d="M111.22,39.6a8.55,8.55,0,0,1-6.51,2.66c-3.29,0-7-2.21-7-6.67,0-4.62,3.71-6.54,7-6.54a8.38,8.38,0,0,1,6.41,2.48.06.06,0,0,0,.1,0V28.63c0-2.33-1.92-3.75-4.72-3.75a8.16,8.16,0,0,0-5.68,2.28.31.31,0,0,1-.47-.07l-1.47-2.5a.3.3,0,0,1,.05-.38,12,12,0,0,1,8.28-3.08c4.46,0,8.38,1.87,8.38,7.29V41.49a.27.27,0,0,1-.27.27h-3.83a.27.27,0,0,1-.27-.27Zm0-4.4a1,1,0,0,0-.12-.49,5.46,5.46,0,0,0-4.68-2.66c-2.46,0-4.29,1.42-4.29,3.63s1.83,3.58,4.29,3.58a5.94,5.94,0,0,0,4.61-2,1.13,1.13,0,0,0,.19-.62Z"/><path class="cls-3" d="M122.14,37.09V25.46h-3a.3.3,0,0,1-.3-.29V21.92a.3.3,0,0,1,.3-.29h3V16.37a.25.25,0,0,1,.24-.25h3.89a.25.25,0,0,1,.25.25v5.26h3.79a.29.29,0,0,1,.29.29v3.25a.29.29,0,0,1-.29.29h-3.79V36c0,1.38.66,2.38,1.91,2.38a3.06,3.06,0,0,0,1.76-.53.18.18,0,0,1,.29.09l.92,2.91a.19.19,0,0,1-.05.19,5.88,5.88,0,0,1-4,1.21C123.93,42.26,122.14,40.43,122.14,37.09Z"/><path class="cls-3" d="M143.52,21.13c6,0,9.93,4.62,9.93,11v.7a.35.35,0,0,1-.35.34h-15a.18.18,0,0,0-.17.2,6.1,6.1,0,0,0,6.4,5.35,8.6,8.6,0,0,0,5.54-2,.2.2,0,0,1,.3,0l1.77,2.54a.21.21,0,0,1,0,.27,11.81,11.81,0,0,1-8,2.79,10.12,10.12,0,0,1-10.55-10.59C133.31,25.84,137.56,21.13,143.52,21.13Zm-5.38,8.92h10.78a.26.26,0,0,0,.26-.27,5.38,5.38,0,0,0-5.66-5.07,5.52,5.52,0,0,0-5.63,5.05A.25.25,0,0,0,138.14,30.05Z"/><path class="cls-3" d="M171.37,29.17c0-3.12-1.58-4.17-4-4.17a6.61,6.61,0,0,0-5.09,2.61.4.4,0,0,0-.08.23V41.52a.24.24,0,0,1-.24.24H158a.24.24,0,0,1-.24-.24V21.87a.24.24,0,0,1,.24-.24h3.9a.24.24,0,0,1,.24.24v2.35a.06.06,0,0,0,.11,0,9.52,9.52,0,0,1,7-3.13c4.33,0,6.5,2.33,6.5,6.46V41.52a.24.24,0,0,1-.24.24h-3.89a.24.24,0,0,1-.25-.24Z"/><path class="cls-3" d="M202.67,29.8h9a.49.49,0,0,1,.49.48v2.79a.49.49,0,0,1-.49.48h-9a.49.49,0,0,1-.49-.48V30.28A.49.49,0,0,1,202.67,29.8Z"/><path class="cls-3" d="M225.21,31l-7.6,10.62a.3.3,0,0,1-.23.11h-5.15a.27.27,0,0,1-.22-.43l10-13.75a.11.11,0,0,0,0-.15l-9.42-13a.27.27,0,0,1,.22-.43H218a.28.28,0,0,1,.22.11l7,10a.14.14,0,0,0,.22,0l6.94-9.95a.27.27,0,0,1,.22-.11h5.2a.27.27,0,0,1,.22.43l-9.38,13a.11.11,0,0,0,0,.15l10,13.79a.27.27,0,0,1-.22.43h-5.15a.28.28,0,0,1-.23-.11L225.42,31A.13.13,0,0,0,225.21,31Z"/><path class="cls-3" d="M193.76,39.57a8.5,8.5,0,0,1-6.5,2.67c-3.3,0-7-2.21-7-6.67,0-4.62,3.71-6.54,7-6.54a8.31,8.31,0,0,1,6.5,2.58v-3c0-2.33-1.92-3.75-4.71-3.75a8.18,8.18,0,0,0-5.69,2.28.31.31,0,0,1-.47-.07l-1.47-2.5a.31.31,0,0,1,.06-.38,12,12,0,0,1,8.28-3.08c4.46,0,8.38,1.87,8.38,7.29V41.47a.27.27,0,0,1-.27.27H194a.27.27,0,0,1-.27-.27Zm0-4.39a1.11,1.11,0,0,0-.12-.5A5.44,5.44,0,0,0,189,32c-2.46,0-4.3,1.42-4.3,3.63s1.84,3.58,4.3,3.58a5.92,5.92,0,0,0,4.6-2,1.06,1.06,0,0,0,.19-.62Z"/></svg>