<svg width="5504" height="755" viewBox="0 0 5504 755" fill="none" xmlns="http://www.w3.org/2000/svg">
<mask id="mask0_229_2592" style="mask-type:luminance" maskUnits="userSpaceOnUse" x="1253" y="113" width="4250" height="522">
<path d="M5503 113H1253V634.861H5503V113Z" fill="white"/>
</mask>
<g mask="url(#mask0_229_2592)">
<path d="M1539.36 280.41L1479.66 440.356H1597.46L1539.37 280.41H1539.36ZM1440.37 539.45L1402.73 626.548H1253L1462.47 125.747H1617.09L1822.48 626.585H1671.1L1635.94 539.487H1440.37V539.45Z" fill="black"/>
<path d="M2026.45 350.289C2082.1 350.289 2114 327 2114 287.958C2114 248.917 2081.29 225.627 2026.45 225.627H2000.27V350.277H2026.45V350.289ZM2311.98 626.596H2135.22L2000.23 434.394V626.596H1858.67V125.758H2078.77C2140.95 125.758 2181.04 139.281 2212.95 170.046C2242.42 198.556 2259.58 239.113 2259.58 280.408C2259.58 355.473 2217.84 405.057 2140.11 421.573L2311.94 626.546L2311.98 626.583V626.596Z" fill="black"/>
<path d="M2486.62 236.159V319.488H2699.27V429.888H2486.62V516.21H2708.26V626.61H2345.06V125.771H2708.26V236.171H2486.62V236.159Z" fill="black"/>
<path d="M2780.1 125.759H2921.65L3182.64 432.129V125.759H3324.2V626.597H3182.64L2921.65 320.227V626.597H2780.1V125.759Z" fill="black"/>
<path d="M3648.41 280.41L3588.68 440.356H3706.5L3648.41 280.41ZM3549.43 539.45L3511.79 626.548H3362.05L3571.52 125.747H3726.16L3931.54 626.585H3780.16L3744.97 539.487H3549.42L3549.45 539.45H3549.43Z" fill="black"/>
<path d="M4294.04 574.773V626.586H3974.29L4154.26 415.578C4220.46 338.259 4240.52 303.7 4240.52 266.149C4240.52 212.082 4197.39 169.272 4140.87 169.272C4084.36 169.272 4047.93 204.532 4041.99 272.147H3986.2C3990.68 227.859 3996.62 206.823 4012.97 182.82C4040.48 143.015 4088.08 118.235 4139.4 118.235C4226.39 118.235 4294.8 182.82 4294.8 265.398C4294.8 321.718 4275.47 356.277 4187.74 457.637L4086.62 574.773H4294.1H4294.02H4294.04Z" fill="black"/>
<path d="M4419.89 375.059C4419.89 494.449 4471.94 583.037 4541.84 583.037C4611.75 583.037 4666.03 492.934 4666.03 375.798C4666.03 258.661 4612.49 169.31 4542.58 169.31C4472.68 169.31 4419.89 259.413 4419.89 375.059ZM4720.31 376.537C4720.31 522.96 4642.99 634.838 4542.57 634.838C4442.15 634.838 4365.6 522.221 4365.6 376.537C4365.6 230.852 4442.95 118.235 4543.34 118.235C4643.74 118.235 4720.31 228.635 4720.31 376.499" fill="black"/>
<path d="M4916.09 339.735C4980.79 338.258 5014.27 308.958 5014.27 254.152C5014.27 206.083 4978.59 169.308 4930.98 169.308C4879.67 169.308 4855.87 191.083 4845.48 249.67H4791.2C4804.59 160.343 4848.45 118.271 4928.78 118.271C5009.11 118.271 5068.59 175.306 5068.59 252.662C5068.59 301.47 5046.26 340.499 5005.4 363.801C5050.74 385.576 5076 429.124 5076 486.196C5076 571.04 5009.83 634.886 4922.1 634.886C4866.32 634.886 4815.78 607.114 4791.98 562.075C4781.55 543.268 4777.86 527.529 4775.63 496.752H4829.17C4837.34 552.271 4871.57 583.073 4924.37 583.073C4977.18 583.073 5021.79 539.524 5021.79 483.229C5021.79 421.674 4986.83 390.133 4916.19 388.606V339.798L4916.09 339.723V339.735Z" fill="black"/>
<path d="M5215.95 465.16C5215.95 530.484 5268 583.035 5332.68 583.035C5397.37 583.035 5448.69 530.484 5448.69 465.16C5448.69 399.837 5396.65 347.285 5332.68 347.285C5268.72 347.285 5215.95 399.837 5215.95 465.16ZM5413.01 144.566L5298.47 305.214C5317.07 299.216 5328.22 297.726 5343.11 297.726C5432.34 297.726 5502.97 370.575 5502.97 463.67C5502.97 556.766 5426.39 634.836 5332.68 634.836C5238.98 634.836 5161.66 558.293 5161.66 463.67C5161.66 427.634 5176.55 386.351 5202.55 350.278L5371.34 112.975L5413 144.528V144.566H5413.01Z" fill="black"/>
</g>
<path d="M3 751.001L503 1L669.663 251L3 751.001Z" fill="#FF6200"/>
<path d="M503 751L753 376L1003 751H503Z" fill="#FF6200"/>
</svg>
