<svg width="408" height="290" viewBox="0 0 408 290" fill="none" xmlns="http://www.w3.org/2000/svg">
<mask id="mask0_176_3852" style="mask-type:alpha" maskUnits="userSpaceOnUse" x="0" y="0" width="408" height="292">
<rect width="408" height="291.429" fill="#D9D9D9"/>
</mask>
<g mask="url(#mask0_176_3852)">
<g clip-path="url(#clip0_176_3852)">
<mask id="mask1_176_3852" style="mask-type:luminance" maskUnits="userSpaceOnUse" x="58" y="-50" width="442" height="403">
<path d="M499.416 -49.5425L499.416 352.629L58.2857 352.629L58.2857 -49.5425L499.416 -49.5425Z" fill="white"/>
</mask>
<g mask="url(#mask1_176_3852)">
</g>
<g clip-path="url(#clip1_176_3852)">
<path d="M477.769 -55.7555C474.623 -55.7614 471.507 -55.1465 468.599 -53.9458C465.691 -52.7451 463.048 -50.9822 460.821 -48.758C458.595 -46.5338 456.828 -43.892 455.622 -40.9836C454.417 -38.0753 453.796 -34.9575 453.795 -31.8087C453.804 -29.6759 453.391 -27.5625 452.579 -25.5907C451.767 -23.6189 450.572 -21.8279 449.064 -20.3213C447.556 -18.8148 445.764 -17.6226 443.793 -16.8139C441.821 -16.0051 439.709 -15.5958 437.578 -15.6096C432.849 -15.5997 428.229 -14.1868 424.301 -11.5495C420.374 -8.91217 417.315 -5.16874 415.512 -0.792171C413.709 3.5844 413.243 8.39771 414.171 13.0396C415.1 17.6815 417.383 21.9438 420.73 25.2878C424.078 28.6318 428.341 30.9075 432.98 31.8275C437.619 32.7474 442.426 32.2703 446.795 30.4563C451.163 28.6424 454.896 25.5731 457.523 21.6361C460.149 17.6992 461.551 13.0713 461.551 8.33721C461.544 5.12507 462.49 1.98314 464.268 -0.690916C466.046 -3.36498 468.576 -5.45095 471.539 -6.68482C474.502 -7.9187 477.764 -8.24502 480.912 -7.62247C484.06 -6.99991 486.953 -5.45648 489.224 -3.18751C491.495 -0.918555 493.043 1.97394 493.672 5.12388C494.3 8.27382 493.981 11.5396 492.755 14.5079C491.528 17.4762 489.45 20.0135 486.782 21.7988C484.114 23.5841 480.977 24.537 477.769 24.537C474.623 24.5311 471.507 25.146 468.599 26.3467C465.691 27.5473 463.048 29.3102 460.822 31.5343C458.595 33.7584 456.828 36.4001 455.623 39.3084C454.417 42.2167 453.796 45.3344 453.795 48.4831C453.795 52.7886 452.086 56.9177 449.045 59.9621C446.004 63.0065 441.879 64.7168 437.578 64.7168C433.277 64.7168 429.152 63.0065 426.11 59.9621C423.069 56.9177 421.36 52.7886 421.36 48.4831C421.36 42.1186 418.835 36.0147 414.339 31.5143C409.843 27.0139 403.745 24.4856 397.387 24.4856C391.029 24.4856 384.931 27.0139 380.435 31.5143C375.939 36.0147 373.413 42.1186 373.413 48.4831C373.423 50.616 373.009 52.7295 372.197 54.7014C371.385 56.6733 370.19 58.4644 368.682 59.971C367.174 61.4776 365.382 62.6698 363.411 63.4786C361.439 64.2874 359.327 64.6968 357.196 64.683C352.904 64.683 348.788 62.9763 345.753 59.9383C342.718 56.9004 341.013 52.7801 341.013 48.4838C341.013 44.1875 342.718 40.0672 345.753 37.0293C348.788 33.9914 352.904 32.2847 357.196 32.2847C360.342 32.2906 363.458 31.6757 366.366 30.4749C369.274 29.2742 371.917 27.5113 374.144 25.287C376.37 23.0628 378.137 20.4208 379.343 17.5124C380.549 14.604 381.17 11.4861 381.17 8.33722C381.161 6.20442 381.574 4.09094 382.386 2.1191C383.198 0.147253 384.393 -1.64379 385.901 -3.15038C387.409 -4.65698 389.201 -5.84919 391.173 -6.65805C393.144 -7.46689 395.256 -7.87631 397.387 -7.86259C400.532 -7.85663 403.648 -8.47158 406.556 -9.67224C409.464 -10.8729 412.107 -12.6357 414.334 -14.8598C416.56 -17.0839 418.327 -19.7257 419.533 -22.634C420.739 -25.5422 421.36 -28.6599 421.36 -31.8087C421.351 -33.9416 421.764 -36.0551 422.576 -38.027C423.389 -39.9989 424.583 -41.7899 426.092 -43.2965C427.6 -44.8031 429.392 -45.9953 431.363 -46.8042C433.335 -47.613 435.447 -48.0223 437.578 -48.0085C440.723 -48.0026 443.84 -48.6176 446.748 -49.8183C449.656 -51.0191 452.299 -52.7821 454.525 -55.0065C456.752 -57.2308 458.519 -59.8728 459.724 -62.7813C460.93 -65.6898 461.551 -68.8077 461.551 -71.9567C461.544 -75.1688 462.49 -78.3107 464.268 -80.9848C466.046 -83.6588 468.576 -85.7448 471.539 -86.9787C474.502 -88.2126 477.764 -88.5389 480.912 -87.9163C484.06 -87.2938 486.953 -85.7504 489.224 -83.4814C491.495 -81.2124 493.043 -78.3199 493.672 -75.17C494.3 -72.0201 493.981 -68.7543 492.755 -65.786C491.528 -62.8177 489.45 -60.2803 486.782 -58.4951C484.114 -56.7098 480.977 -55.7568 477.769 -55.7568L477.769 -55.7555Z" fill="white"/>
<path d="M196.433 64.683C194.302 64.6968 192.19 64.2874 190.218 63.4786C188.247 62.6698 186.455 61.4776 184.947 59.971C183.438 58.4644 182.244 56.6733 181.432 54.7014C180.62 52.7295 180.206 50.616 180.216 48.4831C180.216 42.1186 177.69 36.0147 173.194 31.5143C168.698 27.0139 162.6 24.4856 156.242 24.4856C149.884 24.4856 143.786 27.0139 139.29 31.5143C134.794 36.0147 132.269 42.1186 132.269 48.4831C132.269 52.7886 130.56 56.9177 127.519 59.9621C124.477 63.0065 120.352 64.7168 116.051 64.7168C111.75 64.7168 107.625 63.0065 104.584 59.9621C101.543 56.9177 99.8339 52.7886 99.8339 48.4831C99.8331 45.3344 99.2121 42.2167 98.0064 39.3084C96.8007 36.4001 95.034 33.7584 92.8073 31.5343C90.5807 29.3101 87.9378 27.5473 85.0299 26.3467C82.1219 25.146 79.006 24.5311 75.8604 24.537C73.7264 24.5508 71.6108 24.142 69.6352 23.3341C67.6597 22.5262 65.8633 21.3351 64.3494 19.8295C62.8355 18.3239 61.6341 16.5334 60.8142 14.5611C59.9944 12.5888 59.5723 10.4737 59.5723 8.33754C59.5723 6.20134 59.9944 4.08624 60.8142 2.11396C61.6341 0.141693 62.8355 -1.64879 64.3494 -3.15442C65.8633 -4.66006 67.6597 -5.85111 69.6352 -6.65902C71.6108 -7.46693 73.7264 -7.87575 75.8604 -7.86194C77.9911 -7.87574 80.1034 -7.46642 82.0749 -6.65766C84.0465 -5.8489 85.8383 -4.65676 87.3466 -3.15025C88.8549 -1.64372 90.0497 0.147261 90.8619 2.11907C91.6741 4.09089 92.0876 6.20436 92.0785 8.3372C92.0785 14.7017 94.6042 20.8056 99.1001 25.306C103.596 29.8064 109.694 32.3348 116.052 32.3348C122.41 32.3348 128.508 29.8064 133.004 25.306C137.5 20.8056 140.025 14.7017 140.025 8.3372C140.025 4.03177 141.734 -0.0973241 144.775 -3.14173C147.817 -6.18613 151.942 -7.89646 156.243 -7.89646C160.544 -7.89646 164.669 -6.18613 167.71 -3.14173C170.751 -0.0973254 172.46 4.03176 172.46 8.3372C172.461 11.486 173.082 14.6037 174.288 17.512C175.493 20.4203 177.26 23.0622 179.487 25.2863C181.713 27.5105 184.356 29.2734 187.264 30.4741C190.172 31.6748 193.288 32.2899 196.434 32.284C200.726 32.284 204.842 33.9907 207.877 37.0286C210.911 40.0665 212.616 44.1869 212.616 48.4831C212.616 52.7794 210.911 56.8997 207.877 59.9377C204.842 62.9756 200.726 64.6823 196.434 64.6823L196.433 64.683Z" fill="white"/>
<path d="M91.8121 88.9364C91.8121 79.9438 84.6185 72.654 75.7448 72.654C66.8711 72.654 59.6776 79.9438 59.6776 88.9364C59.6776 97.9289 66.8711 105.219 75.7448 105.219C84.6185 105.219 91.8121 97.9289 91.8121 88.9364Z" fill="white"/>
<path d="M397.388 104.829C400.533 104.823 403.649 105.438 406.557 106.639C409.465 107.84 412.108 109.603 414.335 111.827C416.561 114.051 418.328 116.693 419.534 119.601C420.739 122.51 421.36 125.627 421.361 128.776C421.361 133.082 423.07 137.211 426.111 140.255C429.152 143.299 433.277 145.01 437.578 145.01C441.88 145.01 446.004 143.299 449.046 140.255C452.087 137.211 453.796 133.082 453.796 128.776C453.796 125.627 454.417 122.51 455.623 119.601C456.829 116.693 458.595 114.051 460.822 111.827C463.049 109.603 465.692 107.84 468.6 106.639C471.508 105.438 474.624 104.823 477.769 104.829C480.968 104.823 484.094 103.867 486.751 102.083C489.407 100.298 491.476 97.7661 492.696 94.8055C493.915 91.8449 494.231 88.5888 493.602 85.4488C492.974 82.3087 491.43 79.4256 489.166 77.1635C486.901 74.9015 484.017 73.3621 480.879 72.7398C477.741 72.1176 474.489 72.4404 471.534 73.6675C468.579 74.8946 466.053 76.9709 464.277 79.634C462.5 82.2972 461.552 85.4278 461.552 88.6302C461.552 94.9947 459.026 101.099 454.53 105.599C450.034 110.099 443.937 112.628 437.578 112.628C431.22 112.628 425.122 110.099 420.627 105.599C416.131 101.099 413.605 94.9947 413.605 88.6302C413.614 86.4974 413.201 84.3839 412.389 82.4121C411.576 80.4403 410.382 78.6493 408.874 77.1428C407.365 75.6363 405.574 74.4441 403.602 73.6354C401.63 72.8266 399.518 72.4173 397.388 72.4311C393.096 72.4311 388.979 74.1378 385.944 77.1758C382.909 80.2138 381.204 84.3342 381.204 88.6305C381.204 92.9269 382.909 97.0473 385.944 100.085C388.979 103.123 393.096 104.829 397.388 104.829Z" fill="white"/>
<path d="M236.624 24.5364C239.769 24.5304 242.885 25.1454 245.793 26.3461C248.701 27.5468 251.344 29.3096 253.571 31.5338C255.798 33.758 257.564 36.3999 258.77 39.3082C259.976 42.2166 260.596 45.3343 260.597 48.4831C260.597 52.7886 262.306 56.9177 265.347 59.9621C268.388 63.0065 272.513 64.7168 276.815 64.7168C281.116 64.7168 285.241 63.0065 288.282 59.9621C291.323 56.9177 293.032 52.7886 293.032 48.4831C293.033 45.3343 293.654 42.2166 294.859 39.3082C296.065 36.3999 297.832 33.758 300.058 31.5338C302.285 29.3096 304.928 27.5468 307.836 26.3461C310.744 25.1454 313.86 24.5304 317.005 24.5364C320.205 24.5295 323.33 23.5737 325.987 21.7896C328.643 20.0054 330.712 17.4731 331.932 14.5125C333.151 11.5519 333.467 8.29587 332.839 5.15583C332.21 2.01578 330.666 -0.867406 328.402 -3.12945C326.137 -5.39148 323.254 -6.93087 320.115 -7.55313C316.977 -8.17538 313.725 -7.85257 310.77 -6.62549C307.815 -5.39841 305.29 -3.32212 303.513 -0.658932C301.736 2.00425 300.788 5.13481 300.788 8.33723C300.788 14.7018 298.262 20.8056 293.766 25.306C289.27 29.8065 283.173 32.3348 276.815 32.3348C270.456 32.3348 264.359 29.8065 259.863 25.3061C255.367 20.8056 252.841 14.7018 252.841 8.33723C252.85 6.20442 252.437 4.09096 251.625 2.11915C250.813 0.147345 249.618 -1.64365 248.11 -3.15017C246.601 -4.6567 244.81 -5.84885 242.838 -6.65762C240.867 -7.46639 238.754 -7.87571 236.624 -7.86191C232.332 -7.86191 228.215 -6.15518 225.18 -3.11719C222.145 -0.0792008 220.44 4.0412 220.44 8.33757C220.44 12.6339 222.146 16.7543 225.18 19.7923C228.215 22.8303 232.332 24.5364 236.624 24.5364Z" fill="white"/>
<path d="M156.242 104.83C153.096 104.824 149.981 105.439 147.073 106.64C144.165 107.841 141.522 109.604 139.295 111.828C137.068 114.052 135.302 116.694 134.096 119.602C132.89 122.511 132.269 125.628 132.269 128.777C132.278 130.91 131.865 133.023 131.052 134.995C130.24 136.967 129.045 138.758 127.537 140.264C126.029 141.771 124.237 142.963 122.266 143.772C120.294 144.581 118.182 144.99 116.051 144.976C111.759 144.976 107.643 143.269 104.608 140.232C101.573 137.194 99.8681 133.073 99.8681 128.777C99.8681 124.48 101.573 120.36 104.608 117.322C107.643 114.284 111.759 112.577 116.051 112.577C119.197 112.583 122.313 111.968 125.221 110.768C128.129 109.567 130.772 107.804 132.998 105.58C135.225 103.356 136.992 100.714 138.197 97.8054C139.403 94.8971 140.024 91.7793 140.025 88.6305C140.018 85.4184 140.964 82.2764 142.741 79.6024C144.519 76.9283 147.05 74.8423 150.013 73.6085C152.975 72.3746 156.237 72.0483 159.385 72.6708C162.533 73.2934 165.426 74.8368 167.698 77.1058C169.969 79.3747 171.517 82.2672 172.145 85.4172C172.774 88.5671 172.455 91.8329 171.228 94.8012C170.002 97.7695 167.923 100.307 165.256 102.092C162.588 103.877 159.451 104.83 156.242 104.83Z" fill="white"/>
<path d="M172.459 168.923C172.46 165.774 173.081 162.656 174.287 159.748C175.492 156.839 177.259 154.197 179.486 151.973C181.712 149.749 184.355 147.986 187.263 146.786C190.171 145.585 193.287 144.97 196.433 144.976C200.725 144.976 204.841 143.269 207.876 140.231C210.911 137.193 212.616 133.073 212.616 128.776C212.616 124.48 210.911 120.36 207.876 117.322C204.841 114.284 200.725 112.577 196.433 112.577C193.287 112.583 190.171 111.968 187.263 110.767C184.355 109.566 181.712 107.804 179.486 105.579C177.259 103.355 175.492 100.713 174.287 97.805C173.081 94.8967 172.46 91.7789 172.459 88.6301C172.469 86.4973 172.055 84.3838 171.243 82.412C170.431 80.4402 169.236 78.6492 167.728 77.1427C166.22 75.6361 164.428 74.444 162.457 73.6352C160.485 72.8265 158.373 72.4171 156.242 72.4309C151.95 72.4309 147.834 74.1377 144.799 77.1757C141.764 80.2137 140.059 84.3341 140.059 88.6304C140.059 92.9268 141.764 97.0472 144.799 100.085C147.834 103.123 151.95 104.83 156.242 104.83C162.587 104.83 168.672 107.353 173.158 111.844C177.644 116.335 180.165 122.426 180.165 128.777C180.165 135.128 177.644 141.219 173.158 145.71C168.672 150.201 162.587 152.723 156.242 152.723C154.117 152.723 152.013 153.142 150.049 153.957C148.086 154.771 146.302 155.964 144.799 157.468C143.296 158.972 142.104 160.758 141.291 162.723C140.478 164.689 140.059 166.795 140.059 168.923C140.059 173.219 141.764 177.339 144.799 180.377C147.834 183.415 151.95 185.122 156.242 185.122C158.373 185.136 160.485 184.726 162.457 183.917C164.428 183.109 166.22 181.917 167.728 180.41C169.236 178.903 170.431 177.112 171.243 175.141C172.055 173.169 172.469 171.055 172.459 168.923Z" fill="white"/>
<path d="M373.414 249.214C373.414 240.267 366.153 233.015 357.197 233.015C348.24 233.015 340.979 240.267 340.979 249.214C340.979 258.16 348.24 265.413 357.197 265.413C366.153 265.413 373.414 258.16 373.414 249.214Z" fill="white"/>
<path d="M293.032 249.214C293.032 240.267 285.771 233.015 276.814 233.015C267.858 233.015 260.597 240.267 260.597 249.214C260.597 258.16 267.858 265.413 276.814 265.413C285.771 265.413 293.032 258.16 293.032 249.214Z" fill="white"/>
<path d="M212.65 249.214C212.65 240.267 205.389 233.015 196.433 233.015C187.476 233.015 180.216 240.267 180.216 249.214C180.216 258.16 187.476 265.413 196.433 265.413C205.389 265.413 212.65 258.16 212.65 249.214Z" fill="white"/>
<path d="M128.391 212.789C128.391 203.843 121.13 196.59 112.173 196.59C103.217 196.59 95.9559 203.843 95.9559 212.789C95.9559 221.736 103.217 228.988 112.173 228.988C121.13 228.988 128.391 221.736 128.391 212.789Z" fill="white"/>
<path d="M252.841 88.2071C252.841 79.2606 245.58 72.008 236.624 72.008C227.667 72.008 220.406 79.2606 220.406 88.2071C220.406 97.1537 227.667 104.406 236.624 104.406C245.58 104.406 252.841 97.1537 252.841 88.2071Z" fill="white"/>
<path d="M333.223 88.2071C333.223 79.2606 325.962 72.008 317.005 72.008C308.049 72.008 300.788 79.2606 300.788 88.2071C300.788 97.1537 308.049 104.406 317.005 104.406C325.962 104.406 333.223 97.1537 333.223 88.2071Z" fill="white"/>
<path d="M317.005 152.722C313.86 152.728 310.744 152.113 307.836 150.913C304.928 149.712 302.285 147.949 300.058 145.725C297.832 143.501 296.065 140.859 294.859 137.951C293.654 135.042 293.033 131.924 293.032 128.776C293.032 124.47 291.323 120.341 288.282 117.297C285.241 114.252 281.116 112.542 276.815 112.542C272.513 112.542 268.389 114.252 265.347 117.297C262.306 120.341 260.597 124.47 260.597 128.776C260.597 131.924 259.976 135.042 258.77 137.951C257.564 140.859 255.798 143.501 253.571 145.725C251.344 147.949 248.701 149.712 245.793 150.913C242.885 152.113 239.769 152.728 236.624 152.722C232.332 152.722 228.215 154.429 225.181 157.467C222.146 160.505 220.441 164.626 220.441 168.922C220.441 173.218 222.146 177.339 225.181 180.377C228.215 183.415 232.332 185.121 236.624 185.121C238.754 185.135 240.867 184.726 242.838 183.917C244.81 183.108 246.601 181.916 248.11 180.41C249.618 178.903 250.813 177.112 251.625 175.14C252.437 173.169 252.85 171.055 252.841 168.922C252.841 162.558 255.367 156.454 259.863 151.953C264.359 147.453 270.456 144.925 276.815 144.925C283.173 144.925 289.27 147.453 293.766 151.953C298.262 156.454 300.788 162.558 300.788 168.922C300.781 172.134 301.727 175.276 303.504 177.951C305.282 180.625 307.813 182.711 310.775 183.945C313.738 185.179 317 185.505 320.148 184.883C323.296 184.26 326.189 182.717 328.461 180.448C330.732 178.179 332.28 175.286 332.909 172.137C333.537 168.987 333.218 165.721 331.992 162.752C330.765 159.784 328.687 157.247 326.019 155.461C323.351 153.676 320.214 152.722 317.005 152.722Z" fill="white"/>
</g>
</g>
<path d="M415.282 248.975C415.296 246.839 414.886 244.721 414.075 242.745C413.264 240.768 412.069 238.972 410.559 237.46C409.049 235.948 407.254 234.75 405.278 233.936C403.302 233.121 401.183 232.707 399.046 232.716C392.688 232.683 386.603 230.136 382.12 225.632C377.637 221.128 375.12 215.034 375.12 208.681C375.12 202.329 377.637 196.235 382.12 191.731C386.603 187.227 392.688 184.68 399.046 184.646C403.343 184.619 407.455 182.893 410.484 179.847C413.513 176.801 415.213 172.681 415.213 168.387C415.213 164.093 413.513 159.973 410.484 156.927C407.455 153.88 403.343 152.155 399.046 152.128C395.89 152.127 392.765 151.504 389.85 150.296C386.934 149.087 384.287 147.316 382.057 145.083C379.828 142.851 378.061 140.201 376.858 137.286C375.654 134.37 375.038 131.246 375.044 128.092C375.044 128.092 375.044 128.087 375.044 128.084C375.044 128.082 375.044 128.079 375.044 128.076C375.038 124.922 375.654 121.799 376.858 118.883C378.061 115.968 379.828 113.318 382.057 111.086C384.287 108.853 386.935 107.082 389.85 105.873C392.765 104.665 395.89 104.042 399.046 104.041C402.931 104.031 406.685 102.632 409.629 100.097C412.573 97.563 414.513 94.0604 415.099 90.2218C415.685 86.3833 414.879 82.4619 412.825 79.1657C410.771 75.8695 407.605 73.4159 403.899 72.2478C402.312 71.7549 400.659 71.5055 398.996 71.5081C395.842 71.513 392.718 70.8944 389.804 69.6879C386.89 68.4814 384.244 66.7109 382.018 64.4782C379.792 62.2455 378.029 59.5947 376.832 56.6786C375.635 53.7625 375.028 50.6387 375.044 47.4869C375.065 44.0161 373.968 40.6307 371.914 37.8318C369.86 35.033 366.958 32.9695 363.639 31.9468C362.058 31.458 360.413 31.2107 358.758 31.2131H358.706C356.568 31.2036 354.45 31.6178 352.473 32.432C350.496 33.2461 348.701 34.444 347.191 35.9561C345.681 37.4683 344.486 39.2648 343.675 41.2417C342.864 43.2185 342.454 45.3364 342.468 47.4727C342.474 50.6263 341.857 53.7501 340.654 56.6655C339.45 59.5808 337.684 62.2304 335.454 64.4627C333.225 66.6951 330.578 68.4663 327.663 69.6751C324.748 70.8839 321.623 71.5066 318.467 71.5074C316.329 71.4981 314.211 71.9126 312.234 72.7269C310.258 73.5412 308.463 74.7392 306.953 76.2514C305.443 77.7637 304.248 79.5602 303.437 81.5369C302.627 83.5137 302.217 85.6315 302.231 87.7677C302.231 87.7677 302.231 87.7724 302.231 87.7751C302.231 87.7778 302.231 87.7798 302.231 87.7825C302.217 89.9186 302.627 92.0363 303.438 94.0129C304.248 95.9895 305.443 97.7859 306.953 99.2979C308.463 100.81 310.258 102.008 312.235 102.822C314.211 103.636 316.329 104.051 318.467 104.041C324.846 104.041 330.964 106.574 335.475 111.081C339.986 115.589 342.52 121.702 342.52 128.077C342.52 134.451 339.986 140.565 335.475 145.072C330.964 149.58 324.846 152.112 318.467 152.112C315.248 152.105 312.098 153.053 309.418 154.836C306.738 156.618 304.647 159.155 303.41 162.125C302.174 165.096 301.847 168.366 302.47 171.522C303.094 174.678 304.641 177.578 306.915 179.856C309.19 182.133 312.089 183.685 315.246 184.315C318.403 184.945 321.676 184.625 324.652 183.396C327.627 182.166 330.17 180.082 331.959 177.408C333.749 174.733 334.704 171.588 334.704 168.371C334.692 162.088 337.148 156.051 341.542 151.558C345.937 147.064 351.921 144.473 358.207 144.34C358.406 144.348 358.606 144.351 358.807 144.351C365.164 144.385 371.249 146.932 375.732 151.436C380.216 155.939 382.732 162.034 382.732 168.386C382.732 174.739 380.216 180.833 375.732 185.337C371.249 189.841 365.164 192.388 358.807 192.421C354.509 192.449 350.397 194.174 347.369 197.22C344.34 200.267 342.64 204.386 342.64 208.681C342.64 212.975 344.34 217.095 347.369 220.141C350.397 223.187 354.509 224.912 358.807 224.94C361.963 224.941 365.088 225.563 368.003 226.772C370.918 227.981 373.566 229.752 375.795 231.984C378.024 234.217 379.791 236.867 380.995 239.782C382.198 242.698 382.814 245.822 382.808 248.975C382.808 251.106 383.228 253.216 384.044 255.184C384.86 257.153 386.056 258.941 387.564 260.448C389.072 261.954 390.862 263.15 392.831 263.965C394.801 264.78 396.913 265.2 399.045 265.2C401.177 265.2 403.288 264.78 405.258 263.965C407.228 263.15 409.018 261.954 410.526 260.448C412.034 258.941 413.23 257.153 414.046 255.184C414.862 253.216 415.281 251.106 415.281 248.975H415.282ZM382.76 87.7677C382.766 90.9214 382.149 94.0452 380.946 96.9606C379.742 99.8759 377.975 102.525 375.746 104.758C373.517 106.99 370.869 108.761 367.954 109.97C365.039 111.179 361.914 111.801 358.758 111.802H358.706C352.382 111.783 346.32 109.275 341.832 104.823C337.344 100.37 334.791 94.3306 334.727 88.0113C334.662 81.692 337.091 75.6015 341.487 71.0583C345.883 66.5151 351.893 63.8846 358.215 63.7364C358.411 63.7431 358.607 63.7465 358.804 63.7465C361.958 63.7411 365.083 64.3594 367.997 65.5657C370.911 66.772 373.558 68.5425 375.785 70.7752C378.011 73.008 379.774 75.6588 380.971 78.5751C382.168 81.4915 382.776 84.6156 382.76 87.7677ZM334.163 208.868C334.177 206.731 333.767 204.613 332.956 202.636C332.146 200.659 330.951 198.862 329.441 197.35C327.93 195.838 326.135 194.639 324.158 193.825C322.182 193.011 320.063 192.596 317.925 192.606C311.546 192.606 305.428 190.073 300.917 185.566C296.406 181.058 293.872 174.945 293.872 168.57C293.872 162.196 296.406 156.082 300.917 151.575C305.428 147.067 311.546 144.535 317.925 144.535C322.222 144.507 326.334 142.782 329.363 139.736C332.392 136.69 334.092 132.57 334.092 128.276C334.092 123.981 332.392 119.861 329.363 116.815C326.334 113.769 322.222 112.044 317.925 112.016C314.769 112.016 311.644 111.393 308.729 110.184C305.814 108.976 303.166 107.205 300.936 104.972C298.707 102.74 296.94 100.09 295.737 97.1747C294.533 94.2593 293.917 91.1353 293.923 87.9816C293.948 84.0985 292.573 80.3364 290.048 77.3846C287.523 74.4328 284.018 72.4891 280.176 71.9096C279.319 71.775 278.453 71.7076 277.586 71.7078C274.43 71.7072 271.305 71.0847 268.39 69.876C265.475 68.6673 262.827 66.896 260.597 64.6636C258.368 62.4312 256.601 59.7814 255.397 56.8659C254.194 53.9503 253.578 50.8263 253.584 47.6725C253.584 43.3694 251.873 39.2426 248.828 36.1999C245.783 33.1572 241.653 31.4478 237.347 31.4478C233.041 31.4478 228.911 33.1572 225.866 36.1999C222.821 39.2426 221.111 43.3694 221.111 47.6725C221.097 49.8086 221.507 51.9263 222.318 53.903C223.128 55.8797 224.323 57.676 225.833 59.1881C227.343 60.7002 229.139 61.898 231.115 62.7122C233.092 63.5264 235.21 63.9408 237.348 63.9314C243.727 63.9314 249.845 66.4637 254.356 70.9712C258.867 75.4787 261.401 81.5922 261.401 87.9668C261.401 94.3414 258.867 100.455 254.356 104.962C249.845 109.47 243.727 112.002 237.348 112.002C234.128 111.995 230.979 112.943 228.299 114.725C225.618 116.508 223.527 119.044 222.29 122.015C221.054 124.985 220.726 128.255 221.35 131.412C221.974 134.568 223.521 137.468 225.795 139.745C228.069 142.023 230.968 143.575 234.126 144.205C237.283 144.835 240.556 144.515 243.531 143.286C246.506 142.056 249.05 139.972 250.839 137.298C252.628 134.623 253.584 131.478 253.584 128.261C253.572 121.977 256.028 115.94 260.423 111.446C264.819 106.953 270.804 104.362 277.091 104.231C277.288 104.238 277.488 104.242 277.687 104.242C284.044 104.275 290.129 106.823 294.613 111.326C299.096 115.83 301.613 121.924 301.613 128.277C301.613 134.629 299.096 140.724 294.613 145.227C290.129 149.731 284.044 152.278 277.687 152.312C275.542 152.309 273.418 152.729 271.435 153.547C269.452 154.365 267.65 155.565 266.132 157.079C264.613 158.592 263.408 160.39 262.585 162.369C261.762 164.349 261.337 166.471 261.334 168.614C261.3 174.966 258.752 181.047 254.244 185.527C249.737 190.007 243.639 192.522 237.281 192.522C230.924 192.522 224.826 190.007 220.318 185.527C215.811 181.047 213.262 174.966 213.229 168.614C213.236 165.397 212.287 162.249 210.503 159.571C208.72 156.892 206.181 154.803 203.208 153.567C200.236 152.331 196.963 152.004 193.804 152.628C190.645 153.251 187.743 154.797 185.464 157.07C183.185 159.342 181.631 162.239 181.001 165.394C180.37 168.549 180.691 171.821 181.921 174.794C183.152 177.767 185.237 180.308 187.914 182.096C190.591 183.884 193.738 184.839 196.958 184.839C200.114 184.833 203.24 185.448 206.158 186.651C209.076 187.854 211.727 189.619 213.961 191.847C216.195 194.075 217.968 196.721 219.178 199.633C220.387 202.546 221.01 205.669 221.011 208.823C221.011 213.135 222.725 217.271 225.777 220.32C228.828 223.369 232.966 225.082 237.282 225.082C241.597 225.082 245.736 223.369 248.787 220.32C251.838 217.271 253.553 213.135 253.553 208.823C253.553 205.669 254.176 202.546 255.386 199.633C256.596 196.72 258.369 194.075 260.603 191.847C262.837 189.619 265.489 187.854 268.406 186.651C271.324 185.448 274.45 184.833 277.606 184.839C277.751 184.839 277.895 184.837 278.039 184.833C284.351 184.928 290.372 187.503 294.798 192.002C299.223 196.5 301.698 202.559 301.686 208.867C301.672 211.007 302.082 213.128 302.892 215.108C303.702 217.089 304.896 218.89 306.405 220.408C307.914 221.925 309.708 223.13 311.685 223.952C313.662 224.774 315.782 225.197 317.923 225.197C320.064 225.197 322.184 224.774 324.161 223.952C326.138 223.13 327.932 221.925 329.441 220.408C330.951 218.89 332.144 217.089 332.954 215.108C333.764 213.128 334.174 211.007 334.16 208.867L334.163 208.868ZM374.996 168.379C374.996 165.163 374.042 162.02 372.254 159.346C370.466 156.673 367.925 154.589 364.952 153.359C361.979 152.129 358.708 151.807 355.552 152.434C352.396 153.061 349.497 154.61 347.222 156.884C344.947 159.157 343.397 162.054 342.769 165.208C342.142 168.361 342.464 171.63 343.695 174.601C344.927 177.572 347.012 180.111 349.688 181.897C352.363 183.683 355.509 184.637 358.726 184.637C360.863 184.637 362.979 184.216 364.953 183.399C366.927 182.582 368.72 181.385 370.231 179.875C371.742 178.365 372.94 176.573 373.758 174.6C374.575 172.628 374.996 170.514 374.996 168.379ZM293.876 128.27C293.876 125.054 292.922 121.911 291.135 119.238C289.347 116.564 286.806 114.48 283.833 113.25C280.86 112.019 277.589 111.697 274.433 112.325C271.277 112.952 268.378 114.5 266.103 116.774C263.827 119.048 262.278 121.944 261.65 125.098C261.022 128.252 261.344 131.521 262.576 134.491C263.807 137.462 265.893 140.001 268.568 141.788C271.244 143.574 274.389 144.527 277.607 144.527C281.922 144.527 286.06 142.814 289.111 139.765C292.162 136.716 293.876 132.581 293.876 128.27H293.876ZM374.996 87.759C374.996 84.5435 374.042 81.4003 372.254 78.7267C370.466 76.0532 367.925 73.9694 364.953 72.7389C361.98 71.5084 358.708 71.1865 355.552 71.8138C352.396 72.4411 349.497 73.9895 347.222 76.2631C344.947 78.5368 343.397 81.4336 342.77 84.5873C342.142 87.741 342.464 91.0098 343.695 93.9805C344.927 96.9512 347.012 99.4903 349.688 101.277C352.363 103.063 355.509 104.017 358.726 104.017C360.863 104.017 362.979 103.596 364.953 102.779C366.926 101.962 368.72 100.764 370.231 99.2548C371.742 97.7452 372.94 95.953 373.758 93.9805C374.575 92.008 374.996 89.894 374.996 87.759ZM293.876 47.6503C293.876 44.4348 292.922 41.2916 291.134 38.618C289.346 35.9445 286.805 33.8607 283.832 32.6302C280.86 31.3997 277.588 31.0777 274.432 31.705C271.276 32.3324 268.377 33.8807 266.102 36.1544C263.827 38.4281 262.277 41.3249 261.649 44.4786C261.022 47.6322 261.344 50.9011 262.575 53.8718C263.807 56.8425 265.892 59.3816 268.567 61.168C271.243 62.9544 274.388 63.9079 277.606 63.9079C281.921 63.9077 286.059 62.1948 289.11 59.1459C292.161 56.0971 293.876 51.962 293.876 47.6503ZM374.996 -33.2854C374.996 -37.5972 373.282 -41.7323 370.231 -44.7812C367.18 -47.8301 363.041 -49.543 358.726 -49.543C356.59 -49.543 354.474 -49.1225 352.5 -48.3054C350.526 -47.4884 348.733 -46.2909 347.222 -44.7812C345.711 -43.2716 344.513 -41.4793 343.695 -39.5069C342.878 -37.5344 342.457 -35.4204 342.457 -33.2854C342.457 -31.1504 342.878 -29.0363 343.695 -27.0639C344.513 -25.0914 345.711 -23.2992 347.222 -21.7895C348.733 -20.2799 350.526 -19.0823 352.5 -18.2653C354.474 -17.4483 356.59 -17.0278 358.726 -17.0278C360.863 -17.0277 362.979 -17.4481 364.953 -18.2651C366.927 -19.0821 368.72 -20.2796 370.231 -21.7893C371.742 -23.299 372.94 -25.0912 373.758 -27.0637C374.575 -29.0363 374.996 -31.1504 374.996 -33.2854Z" fill="url(#paint0_linear_176_3852)"/>
</g>
<defs>
<linearGradient id="paint0_linear_176_3852" x1="415.286" y1="106.569" x2="180.686" y2="106.569" gradientUnits="userSpaceOnUse">
<stop stop-color="#D31184"/>
<stop offset="1" stop-color="#FDB913"/>
</linearGradient>
<clipPath id="clip0_176_3852">
<rect width="402.171" height="438.6" fill="white" transform="matrix(4.37114e-08 1 1 -4.37114e-08 58.2857 -49.543)"/>
</clipPath>
<clipPath id="clip1_176_3852">
<rect width="1557.95" height="434.343" fill="white" transform="translate(59.6431 345.706) rotate(-90)"/>
</clipPath>
</defs>
</svg>
