<svg width="624" height="663" viewBox="0 0 624 663" fill="none" xmlns="http://www.w3.org/2000/svg">
<g clip-path="url(#clip0_21_1435)">
<mask id="mask0_21_1435" style="mask-type:luminance" maskUnits="userSpaceOnUse" x="0" y="0" width="624" height="734">
<path d="M624 0H0V733.838H624V0Z" fill="white"/>
</mask>
<g mask="url(#mask0_21_1435)">
<g clip-path="url(#clip1_21_1435)">
<path d="M809.251 415.841C796.015 415.841 785.28 426.576 785.28 439.812C785.28 453.048 796.015 463.782 809.251 463.782C828.824 463.782 844.686 479.645 844.686 499.218C844.686 512.454 855.421 523.188 868.657 523.188C881.893 523.188 892.628 512.454 892.628 499.218C892.628 479.645 908.49 463.782 928.063 463.782C941.299 463.782 952.034 453.048 952.034 439.812C952.034 426.576 941.299 415.841 928.063 415.841C914.827 415.841 904.092 426.576 904.092 439.812C904.092 459.384 888.23 475.247 868.657 475.247C849.084 475.247 833.222 459.384 833.222 439.812C833.222 426.576 822.487 415.841 809.251 415.841Z" fill="white"/>
<path d="M808.917 107.347C822.153 107.347 832.888 96.6127 832.888 83.3766C832.888 63.804 848.751 47.9416 868.323 47.9416C881.56 47.9416 892.294 37.2068 892.294 23.9708C892.294 10.7347 881.56 0 868.323 0C855.087 0 844.353 10.7347 844.353 23.9708C844.353 43.5434 828.49 59.4058 808.917 59.4058C795.681 59.4058 784.946 70.1406 784.946 83.3766C784.946 96.6127 795.681 107.347 808.917 107.347Z" fill="white"/>
<path d="M690.439 178.218C677.202 178.218 666.468 188.952 666.468 202.188C666.468 215.424 677.202 226.159 690.439 226.159C703.675 226.159 714.409 215.424 714.409 202.188C714.409 182.616 730.272 166.753 749.845 166.753C763.081 166.753 773.816 156.018 773.816 142.782C773.816 129.546 763.081 118.812 749.845 118.812C730.272 118.812 714.409 102.949 714.409 83.3766C714.409 63.804 730.272 47.9416 749.845 47.9416C763.081 47.9416 773.816 37.2068 773.816 23.9708C773.816 10.7347 763.081 0 749.845 0C736.609 0 725.874 10.7347 725.874 23.9708C725.874 43.5434 710.011 59.4058 690.439 59.4058C677.202 59.4058 666.468 70.1406 666.468 83.3766C666.468 96.6127 677.202 107.347 690.439 107.347C710.011 107.347 725.874 123.21 725.874 142.782C725.874 162.355 710.011 178.218 690.439 178.218Z" fill="white"/>
<path d="M631.032 523.188C644.268 523.188 655.003 512.454 655.003 499.218C655.003 485.982 644.268 475.247 631.032 475.247C617.796 475.247 607.061 485.982 607.061 499.218C607.061 518.79 591.199 534.653 571.626 534.653C558.39 534.653 547.655 545.387 547.655 558.623C547.655 578.196 531.793 594.058 512.22 594.058C498.984 594.058 488.249 604.793 488.249 618.029C488.249 631.265 498.984 642 512.22 642C525.456 642 536.191 631.265 536.191 618.029C536.191 598.457 552.053 582.594 571.626 582.594C591.199 582.594 607.061 598.457 607.061 618.029C607.061 631.265 617.796 642 631.032 642C644.268 642 655.003 631.265 655.003 618.029C655.003 604.793 644.268 594.058 631.032 594.058C611.46 594.058 595.597 578.196 595.597 558.623C595.597 539.051 611.46 523.188 631.032 523.188Z" fill="white"/>
<path d="M690.439 344.971C710.011 344.971 725.874 360.833 725.874 380.406C725.874 393.642 736.609 404.377 749.845 404.377C763.081 404.377 773.816 393.642 773.816 380.406C773.816 367.17 763.081 356.435 749.845 356.435C730.272 356.435 714.409 340.573 714.409 321C714.409 301.427 730.272 285.565 749.845 285.565C763.081 285.565 773.816 274.83 773.816 261.594C773.816 248.358 763.081 237.623 749.845 237.623C736.609 237.623 725.874 248.358 725.874 261.594C725.874 281.167 710.011 297.029 690.439 297.029C677.202 297.029 666.468 307.764 666.468 321C666.468 334.236 677.202 344.971 690.439 344.971Z" fill="white"/>
<path d="M808.917 297.029C795.681 297.029 784.946 307.764 784.946 321C784.946 334.236 795.681 344.971 808.917 344.971C822.153 344.971 832.888 334.236 832.888 321C832.888 301.427 848.751 285.565 868.323 285.565C881.56 285.565 892.294 274.83 892.294 261.594C892.294 242.021 908.157 226.159 927.73 226.159C940.966 226.159 951.701 215.424 951.701 202.188C951.701 188.952 940.966 178.218 927.73 178.218C914.493 178.218 903.759 188.952 903.759 202.188C903.759 221.761 887.896 237.623 868.323 237.623C848.751 237.623 832.888 221.761 832.888 202.188C832.888 188.952 822.153 178.218 808.917 178.218C795.681 178.218 784.946 188.952 784.946 202.188C784.946 215.424 795.681 226.159 808.917 226.159C828.49 226.159 844.353 242.021 844.353 261.594C844.353 281.167 828.49 297.029 808.917 297.029Z" fill="white"/>
<path d="M571.626 178.218C552.053 178.218 536.191 162.355 536.191 142.782C536.191 129.546 525.456 118.812 512.22 118.812C498.984 118.812 488.249 129.546 488.249 142.782C488.249 156.018 498.984 166.753 512.22 166.753C531.793 166.753 547.655 182.616 547.655 202.188C547.655 215.424 558.39 226.159 571.626 226.159C584.862 226.159 595.597 215.424 595.597 202.188C595.597 182.616 611.46 166.753 631.032 166.753C644.268 166.753 655.003 156.018 655.003 142.782C655.003 129.546 644.268 118.812 631.032 118.812C611.46 118.812 595.597 102.949 595.597 83.3766C595.597 70.1406 584.862 59.4058 571.626 59.4058C552.053 59.4058 536.191 43.5434 536.191 23.9708C536.191 10.7347 525.456 0 512.22 0C498.984 0 488.249 10.7347 488.249 23.9708C488.249 37.2068 498.984 47.9416 512.22 47.9416C531.793 47.9416 547.655 63.804 547.655 83.3766C547.655 96.6127 558.39 107.347 571.626 107.347C591.199 107.347 607.061 123.21 607.061 142.782C607.061 162.355 591.199 178.218 571.626 178.218Z" fill="white"/>
<path d="M631.032 47.9416C644.271 47.9416 655.003 37.2095 655.003 23.9708C655.003 10.7321 644.271 0 631.032 0C617.794 0 607.061 10.7321 607.061 23.9708C607.061 37.2095 617.794 47.9416 631.032 47.9416Z" fill="white"/>
<path d="M1106.28 525.273C1119.52 525.273 1130.25 514.541 1130.25 501.302C1130.25 488.063 1119.52 477.331 1106.28 477.331C1093.04 477.331 1082.31 488.063 1082.31 501.302C1082.31 514.541 1093.04 525.273 1106.28 525.273Z" fill="white"/>
<path d="M1106.28 50.026C1119.52 50.026 1130.25 39.2939 1130.25 26.0552C1130.25 12.8165 1119.52 2.08442 1106.28 2.08442C1093.04 2.08442 1082.31 12.8165 1082.31 26.0552C1082.31 39.2939 1093.04 50.026 1106.28 50.026Z" fill="white"/>
<path d="M1225.09 644.084C1238.33 644.084 1249.06 633.352 1249.06 620.114C1249.06 606.875 1238.33 596.143 1225.09 596.143C1211.86 596.143 1201.12 606.875 1201.12 620.114C1201.12 633.352 1211.86 644.084 1225.09 644.084Z" fill="white"/>
<path d="M393.408 463.782C406.647 463.782 417.379 453.05 417.379 439.812C417.379 426.573 406.647 415.841 393.408 415.841C380.169 415.841 369.437 426.573 369.437 439.812C369.437 453.05 380.169 463.782 393.408 463.782Z" fill="white"/>
<path d="M393.408 344.971C406.647 344.971 417.379 334.239 417.379 321C417.379 307.761 406.647 297.029 393.408 297.029C380.169 297.029 369.437 307.761 369.437 321C369.437 334.239 380.169 344.971 393.408 344.971Z" fill="white"/>
<path d="M393.408 226.159C406.647 226.159 417.379 215.427 417.379 202.188C417.379 188.95 406.647 178.218 393.408 178.218C380.169 178.218 369.437 188.95 369.437 202.188C369.437 215.427 380.169 226.159 393.408 226.159Z" fill="white"/>
<path d="M274.595 107.347C287.834 107.347 298.566 96.6153 298.566 83.3766C298.566 70.1379 287.834 59.4058 274.595 59.4058C261.357 59.4058 250.625 70.1379 250.625 83.3766C250.625 96.6153 261.357 107.347 274.595 107.347Z" fill="white"/>
<path d="M274.595 344.971C287.834 344.971 298.566 334.239 298.566 321C298.566 307.761 287.834 297.029 274.595 297.029C261.357 297.029 250.625 307.761 250.625 321C250.625 334.239 261.357 344.971 274.595 344.971Z" fill="white"/>
<path d="M36.9709 344.971C50.2097 344.971 60.9418 334.239 60.9418 321C60.9418 307.761 50.2097 297.029 36.9709 297.029C23.7321 297.029 13 307.761 13 321C13 334.239 23.7321 344.971 36.9709 344.971Z" fill="white"/>
<path d="M274.595 582.594C287.834 582.594 298.566 571.862 298.566 558.623C298.566 545.385 287.834 534.653 274.595 534.653C261.357 534.653 250.625 545.385 250.625 558.623C250.625 571.862 261.357 582.594 274.595 582.594Z" fill="white"/>
<path d="M155.783 463.782C169.022 463.782 179.754 453.05 179.754 439.812C179.754 426.573 169.022 415.841 155.783 415.841C142.544 415.841 131.812 426.573 131.812 439.812C131.812 453.05 142.544 463.782 155.783 463.782Z" fill="white"/>
<path d="M155.783 226.159C169.022 226.159 179.754 215.427 179.754 202.188C179.754 188.95 169.022 178.218 155.783 178.218C142.544 178.218 131.812 188.95 131.812 202.188C131.812 215.427 142.544 226.159 155.783 226.159Z" fill="white"/>
<path d="M631.762 285.565C645.001 285.565 655.733 274.833 655.733 261.594C655.733 248.355 645.001 237.623 631.762 237.623C618.523 237.623 607.791 248.355 607.791 261.594C607.791 274.833 618.523 285.565 631.762 285.565Z" fill="white"/>
<path d="M631.762 404.377C645.001 404.377 655.733 393.645 655.733 380.406C655.733 367.167 645.001 356.435 631.762 356.435C618.523 356.435 607.791 367.167 607.791 380.406C607.791 393.645 618.523 404.377 631.762 404.377Z" fill="white"/>
<path d="M512.22 356.435C498.984 356.435 488.249 367.17 488.249 380.406C488.249 393.642 498.984 404.377 512.22 404.377C525.456 404.377 536.191 393.642 536.191 380.406C536.191 360.833 552.053 344.971 571.626 344.971C584.862 344.971 595.597 334.236 595.597 321C595.597 307.764 584.862 297.029 571.626 297.029C552.053 297.029 536.191 281.167 536.191 261.594C536.191 248.358 525.456 237.623 512.22 237.623C498.984 237.623 488.249 248.358 488.249 261.594C488.249 274.83 498.984 285.565 512.22 285.565C531.793 285.565 547.655 301.427 547.655 321C547.655 340.573 531.793 356.435 512.22 356.435Z" fill="white"/>
<path d="M2532.03 166.753C2545.27 166.753 2556 156.019 2556 142.782C2556 129.546 2545.27 118.812 2532.03 118.812C2512.46 118.812 2496.59 102.949 2496.59 83.3766C2496.59 63.804 2512.46 47.9416 2532.03 47.9416C2545.27 47.9416 2556 37.2068 2556 23.9708C2556 10.7347 2545.27 0 2532.03 0C2518.79 0 2508.06 10.7347 2508.06 23.9708C2508.06 43.5434 2492.2 59.4058 2472.62 59.4058C2453.05 59.4058 2437.19 43.5434 2437.19 23.9708C2437.19 10.7347 2426.45 0 2413.22 0C2399.98 0 2389.25 10.7347 2389.25 23.9708C2389.25 43.5434 2373.38 59.4058 2353.81 59.4058C2334.24 59.4058 2318.38 43.5434 2318.38 23.9708C2318.38 10.7347 2307.64 0 2294.4 0C2281.17 0 2270.43 10.7347 2270.43 23.9708C2270.43 43.5434 2254.57 59.4058 2235 59.4058C2215.43 59.4058 2199.56 43.5434 2199.56 23.9708C2199.56 10.7347 2188.83 0 2175.59 0C2162.36 0 2151.62 10.7347 2151.62 23.9708C2151.62 43.5434 2135.76 59.4058 2116.19 59.4058C2096.61 59.4058 2080.75 43.5434 2080.75 23.9708C2080.75 10.7347 2070.02 0 2056.78 0C2043.54 0 2032.81 10.7347 2032.81 23.9708C2032.81 43.5434 2016.95 59.4058 1997.37 59.4058C1977.8 59.4058 1961.94 43.5434 1961.94 23.9708C1961.94 10.7347 1951.2 0 1937.97 0C1924.73 0 1914 10.7347 1914 23.9708C1914 37.2068 1924.73 47.9416 1937.97 47.9416C1957.54 47.9416 1973.4 63.804 1973.4 83.3766C1973.4 102.949 1957.54 118.812 1937.97 118.812C1918.39 118.812 1902.53 102.949 1902.53 83.3766C1902.53 70.1406 1891.8 59.4058 1878.56 59.4058C1858.99 59.4058 1843.13 43.5434 1843.13 23.9708C1843.13 10.7347 1832.39 0 1819.16 0C1805.92 0 1795.18 10.7347 1795.18 23.9708C1795.18 37.2068 1805.92 47.9416 1819.16 47.9416C1838.73 47.9416 1854.59 63.804 1854.59 83.3766C1854.59 102.949 1838.73 118.812 1819.16 118.812C1799.58 118.812 1783.72 102.949 1783.72 83.3766C1783.72 70.1406 1772.99 59.4058 1759.75 59.4058C1740.18 59.4058 1724.31 43.5434 1724.31 23.9708C1724.31 10.7347 1713.58 0 1700.34 0C1687.11 0 1676.37 10.7347 1676.37 23.9708C1676.37 37.2068 1687.11 47.9416 1700.34 47.9416C1718.62 47.9416 1733.67 61.8029 1735.57 79.583C1735.38 80.8128 1735.24 82.0843 1735.24 83.3766C1735.24 102.866 1719.52 118.645 1700.07 118.791C1680.62 118.645 1664.91 102.845 1664.91 83.3766C1664.91 70.1406 1654.17 59.4058 1640.94 59.4058C1621.36 59.4058 1605.5 43.5434 1605.5 23.9708C1605.5 10.7347 1594.77 0 1581.53 0C1568.29 0 1557.56 10.7347 1557.56 23.9708C1557.56 43.5434 1541.7 59.4058 1522.12 59.4058C1508.89 59.4058 1498.15 70.1406 1498.15 83.3766C1498.15 102.949 1482.29 118.812 1462.72 118.812C1443.15 118.812 1427.28 102.949 1427.28 83.3766C1427.28 63.804 1443.15 47.9416 1462.72 47.9416C1475.95 47.9416 1486.69 37.2068 1486.69 23.9708C1486.69 10.7347 1475.95 0 1462.72 0C1449.48 0 1438.75 10.7347 1438.75 23.9708C1438.75 43.5434 1422.89 59.4058 1403.31 59.4058C1390.08 59.4058 1379.34 70.1406 1379.34 83.3766C1379.34 102.949 1363.48 118.812 1343.91 118.812C1324.33 118.812 1308.47 102.949 1308.47 83.3766C1308.47 63.804 1324.33 47.9416 1343.91 47.9416C1357.14 47.9416 1367.88 37.2068 1367.88 23.9708C1367.88 10.7347 1357.14 0 1343.91 0C1330.67 0 1319.94 10.7347 1319.94 23.9708C1319.94 43.5434 1304.07 59.4058 1284.5 59.4058C1280.37 59.4058 1276.47 60.448 1273.08 62.3032C1270.37 63.7831 1267.97 65.7633 1266.01 68.1395C1265.53 68.7232 1265.05 69.3485 1264.64 69.9947C1263.78 71.2662 1263.03 72.6419 1262.43 74.0593C1262.11 74.768 1261.86 75.5184 1261.61 76.2688C1260.9 78.5199 1260.53 80.917 1260.53 83.3975C1260.53 102.97 1244.67 118.833 1225.09 118.833C1205.52 118.833 1189.66 102.97 1189.66 83.3975C1189.66 63.8248 1205.52 47.9624 1225.09 47.9624C1238.33 47.9624 1249.06 37.2277 1249.06 23.9916C1249.06 10.7347 1238.33 0 1225.09 0C1211.86 0 1201.12 10.7347 1201.12 23.9708C1201.12 43.5434 1185.26 59.4058 1165.69 59.4058C1152.45 59.4058 1141.72 70.1406 1141.72 83.3766C1141.72 102.949 1125.85 118.812 1106.28 118.812C1086.71 118.812 1070.85 102.949 1070.85 83.3766C1070.85 70.1406 1060.11 59.4058 1046.88 59.4058C1027.3 59.4058 1011.44 43.5434 1011.44 23.9708C1011.44 10.7347 1000.71 0 987.469 0C974.233 0 963.498 10.7347 963.498 23.9708C963.498 43.5434 947.636 59.4058 928.063 59.4058C914.827 59.4058 904.092 70.1406 904.092 83.3766C904.092 102.949 888.23 118.812 868.657 118.812C855.421 118.812 844.686 129.546 844.686 142.782C844.686 156.019 855.421 166.753 868.657 166.753C881.893 166.753 892.628 156.019 892.628 142.782C892.628 123.21 908.49 107.347 928.063 107.347C947.636 107.347 963.498 123.21 963.498 142.782C963.498 156.019 974.233 166.753 987.469 166.753C1007.04 166.753 1022.9 182.616 1022.9 202.188C1022.9 221.761 1007.04 237.623 987.469 237.623C974.233 237.623 963.498 248.358 963.498 261.594C963.498 281.167 947.636 297.029 928.063 297.029C914.827 297.029 904.092 307.764 904.092 321C904.092 340.573 888.23 356.435 868.657 356.435C855.421 356.435 844.686 367.17 844.686 380.406C844.686 393.642 855.421 404.377 868.657 404.377C881.893 404.377 892.628 393.642 892.628 380.406C892.628 360.833 908.49 344.971 928.063 344.971C947.636 344.971 963.498 360.833 963.498 380.406C963.498 393.642 974.233 404.377 987.469 404.377C1007.04 404.377 1022.9 420.239 1022.9 439.812C1022.9 459.384 1007.04 475.247 987.469 475.247C983.342 475.247 979.444 476.289 976.047 478.144C973.337 479.624 970.94 481.604 968.98 483.98C968.501 484.564 968.022 485.189 967.605 485.836C966.75 487.107 966 488.483 965.395 489.9C965.082 490.609 964.832 491.359 964.582 492.11C963.873 494.361 963.498 496.758 963.498 499.238C963.498 518.811 947.636 534.673 928.063 534.673C914.827 534.673 904.092 545.408 904.092 558.644C904.092 578.217 888.23 594.079 868.657 594.079C849.084 594.079 833.222 578.217 833.222 558.644C833.222 545.408 822.487 534.673 809.251 534.673C789.678 534.673 773.816 518.811 773.816 499.238C773.816 486.002 763.081 475.268 749.845 475.268C730.272 475.268 714.409 459.405 714.409 439.833C714.409 426.596 703.675 415.862 690.439 415.862C677.202 415.862 666.468 426.596 666.468 439.833C666.468 453.069 677.202 463.803 690.439 463.803C710.011 463.803 725.874 479.666 725.874 499.238C725.874 518.811 710.011 534.673 690.439 534.673C677.202 534.673 666.468 545.408 666.468 558.644C666.468 571.88 677.202 582.615 690.439 582.615C710.011 582.615 725.874 598.477 725.874 618.05C725.874 631.286 736.608 642.021 749.845 642.021C763.081 642.021 773.816 631.286 773.816 618.05C773.816 604.814 763.081 594.079 749.845 594.079C730.272 594.079 714.409 578.217 714.409 558.644C714.409 539.072 730.272 523.209 749.845 523.209C769.417 523.209 785.28 539.072 785.28 558.644C785.28 571.88 796.015 582.615 809.251 582.615C828.824 582.615 844.686 598.477 844.686 618.05C844.686 620.531 845.061 622.928 845.77 625.179C845.999 625.929 846.27 626.659 846.583 627.388C847.187 628.826 847.938 630.181 848.792 631.453C850.085 633.371 851.648 635.08 853.42 636.539C854.608 637.519 855.879 638.373 857.234 639.124C860.632 640.979 864.53 642.021 868.657 642.021C872.784 642.021 876.682 640.979 880.08 639.124C881.434 638.394 882.727 637.519 883.894 636.539C885.666 635.08 887.229 633.35 888.521 631.453C889.376 630.181 890.127 628.806 890.731 627.388C891.044 626.68 891.294 625.929 891.544 625.179C892.253 622.928 892.628 620.531 892.628 618.05C892.628 598.477 908.49 582.615 928.063 582.615C947.636 582.615 963.498 598.477 963.498 618.05C963.498 631.286 974.233 642.021 987.469 642.021C1000.71 642.021 1011.44 631.286 1011.44 618.05C1011.44 604.814 1000.71 594.079 987.469 594.079C967.896 594.079 952.034 578.217 952.034 558.644C952.034 539.072 967.896 523.209 987.469 523.209C1007.04 523.209 1022.9 539.072 1022.9 558.644C1022.9 571.88 1033.64 582.615 1046.88 582.615C1060.11 582.615 1070.85 571.88 1070.85 558.644C1070.85 545.408 1060.11 534.673 1046.88 534.673C1027.3 534.673 1011.44 518.811 1011.44 499.238C1011.44 479.666 1027.3 463.803 1046.88 463.803C1060.11 463.803 1070.85 453.069 1070.85 439.833C1070.85 420.26 1086.71 404.397 1106.28 404.397C1125.85 404.397 1141.72 420.26 1141.72 439.833C1141.72 453.069 1152.45 463.803 1165.69 463.803C1185.26 463.803 1201.12 479.666 1201.12 499.238C1201.12 518.811 1185.26 534.673 1165.69 534.673C1152.45 534.673 1141.72 545.408 1141.72 558.644C1141.72 578.217 1125.85 594.079 1106.28 594.079C1093.05 594.079 1082.31 604.814 1082.31 618.05C1082.31 631.286 1093.05 642.021 1106.28 642.021C1119.52 642.021 1130.25 631.286 1130.25 618.05C1130.25 598.477 1146.11 582.615 1165.69 582.615C1178.92 582.615 1189.66 571.88 1189.66 558.644C1189.66 539.072 1205.52 523.209 1225.09 523.209C1244.67 523.209 1260.53 539.072 1260.53 558.644C1260.53 571.88 1271.26 582.615 1284.5 582.615C1304.07 582.615 1319.94 598.477 1319.94 618.05C1319.94 631.286 1330.67 642.021 1343.91 642.021C1357.14 642.021 1367.88 631.286 1367.88 618.05C1367.88 598.477 1383.74 582.615 1403.31 582.615C1422.89 582.615 1438.75 598.477 1438.75 618.05C1438.75 631.286 1449.48 642.021 1462.72 642.021C1475.95 642.021 1486.69 631.286 1486.69 618.05C1486.69 598.477 1502.55 582.615 1522.12 582.615C1535.36 582.615 1546.1 571.88 1546.1 558.644C1546.1 539.072 1561.96 523.209 1581.53 523.209C1601.1 523.209 1616.97 539.072 1616.97 558.644C1616.97 578.217 1601.1 594.079 1581.53 594.079C1568.29 594.079 1557.56 604.814 1557.56 618.05C1557.56 631.286 1568.29 642.021 1581.53 642.021C1594.77 642.021 1605.5 631.286 1605.5 618.05C1605.5 598.477 1621.36 582.615 1640.94 582.615C1660.51 582.615 1676.37 598.477 1676.37 618.05C1676.37 631.286 1687.11 642.021 1700.34 642.021C1713.58 642.021 1724.31 631.286 1724.31 618.05C1724.31 598.477 1740.18 582.615 1759.75 582.615C1779.32 582.615 1795.18 598.477 1795.18 618.05C1795.18 631.286 1805.92 642.021 1819.16 642.021C1832.39 642.021 1843.13 631.286 1843.13 618.05C1843.13 598.477 1858.99 582.615 1878.56 582.615C1898.13 582.615 1914 598.477 1914 618.05C1914 631.286 1924.73 642.021 1937.97 642.021C1951.2 642.021 1961.94 631.286 1961.94 618.05C1961.94 598.477 1977.8 582.615 1997.37 582.615C2016.95 582.615 2032.81 598.477 2032.81 618.05C2032.81 631.286 2043.54 642.021 2056.78 642.021C2070.02 642.021 2080.75 631.286 2080.75 618.05C2080.75 598.477 2096.61 582.615 2116.19 582.615C2135.76 582.615 2151.62 598.477 2151.62 618.05C2151.62 631.286 2162.36 642.021 2175.59 642.021C2188.83 642.021 2199.56 631.286 2199.56 618.05C2199.56 598.477 2215.43 582.615 2235 582.615C2254.57 582.615 2270.43 598.477 2270.43 618.05C2270.43 631.286 2281.17 642.021 2294.4 642.021C2307.64 642.021 2318.38 631.286 2318.38 618.05C2318.38 598.477 2334.24 582.615 2353.81 582.615C2373.38 582.615 2389.25 598.477 2389.25 618.05C2389.25 631.286 2399.98 642.021 2413.22 642.021C2426.45 642.021 2437.19 631.286 2437.19 618.05C2437.19 598.477 2453.05 582.615 2472.62 582.615C2492.2 582.615 2508.06 598.477 2508.06 618.05C2508.06 631.286 2518.79 642.021 2532.03 642.021C2545.27 642.021 2556 631.286 2556 618.05C2556 604.814 2545.27 594.079 2532.03 594.079C2512.46 594.079 2496.59 578.217 2496.59 558.644C2496.59 539.072 2512.46 523.209 2532.03 523.209C2545.27 523.209 2556 512.474 2556 499.238C2556 486.002 2545.27 475.268 2532.03 475.268C2512.46 475.268 2496.59 459.405 2496.59 439.833C2496.59 420.26 2512.46 404.397 2532.03 404.397C2545.27 404.397 2556 393.663 2556 380.427C2556 367.191 2545.27 356.456 2532.03 356.456C2512.46 356.456 2496.59 340.594 2496.59 321.021C2496.59 301.448 2512.46 285.586 2532.03 285.586C2545.27 285.586 2556 274.851 2556 261.615C2556 248.379 2545.27 237.644 2532.03 237.644C2512.46 237.644 2496.59 221.782 2496.59 202.209C2496.59 182.637 2512.46 166.753 2532.03 166.753ZM2413.22 47.9416C2432.79 47.9416 2448.65 63.804 2448.65 83.3766C2448.65 102.949 2432.79 118.812 2413.22 118.812C2393.64 118.812 2377.78 102.949 2377.78 83.3766C2377.78 63.804 2393.64 47.9416 2413.22 47.9416ZM1343.91 285.565C1357.14 285.565 1367.88 274.83 1367.88 261.594C1367.88 242.022 1383.74 226.159 1403.31 226.159C1422.89 226.159 1438.75 242.022 1438.75 261.594C1438.75 281.167 1422.89 297.029 1403.31 297.029C1390.08 297.029 1379.34 307.764 1379.34 321C1379.34 340.573 1363.48 356.435 1343.91 356.435C1324.33 356.435 1308.47 340.573 1308.47 321C1308.47 301.427 1324.33 285.565 1343.91 285.565ZM1284.5 297.029C1271.26 297.029 1260.53 307.764 1260.53 321C1260.53 340.573 1244.67 356.435 1225.09 356.435C1205.52 356.435 1189.66 340.573 1189.66 321C1189.66 301.427 1205.52 285.565 1225.09 285.565C1238.33 285.565 1249.06 274.83 1249.06 261.594C1249.06 242.022 1264.93 226.159 1284.5 226.159C1304.07 226.159 1319.94 242.022 1319.94 261.594C1319.94 281.167 1304.07 297.029 1284.5 297.029ZM1557.56 261.594C1557.56 281.167 1541.7 297.029 1522.12 297.029C1508.89 297.029 1498.15 307.764 1498.15 321C1498.15 340.573 1482.29 356.435 1462.72 356.435C1443.15 356.435 1427.28 340.573 1427.28 321C1427.28 301.427 1443.15 285.565 1462.72 285.565C1465.2 285.565 1467.6 285.19 1469.85 284.481C1470.6 284.252 1471.33 283.981 1472.06 283.668C1473.49 283.064 1474.85 282.313 1476.12 281.459C1476.77 281.021 1477.37 280.562 1477.98 280.083C1480.35 278.124 1482.33 275.726 1483.81 273.017C1485.67 269.619 1486.71 265.721 1486.71 261.594C1486.71 242.022 1502.57 226.159 1522.15 226.159C1541.7 226.159 1557.56 242.022 1557.56 261.594ZM1546.1 202.188C1546.1 182.616 1561.96 166.753 1581.53 166.753C1601.1 166.753 1616.97 182.616 1616.97 202.188C1616.97 221.761 1601.1 237.623 1581.53 237.623C1561.96 237.623 1546.1 221.761 1546.1 202.188ZM1343.91 404.377C1357.14 404.377 1367.88 393.642 1367.88 380.406C1367.88 360.833 1383.74 344.971 1403.31 344.971C1422.89 344.971 1438.75 360.833 1438.75 380.406C1438.75 399.979 1422.89 415.841 1403.31 415.841C1390.08 415.841 1379.34 426.576 1379.34 439.812C1379.34 459.384 1363.48 475.247 1343.91 475.247C1324.33 475.247 1308.47 459.384 1308.47 439.812C1308.47 420.239 1324.33 404.377 1343.91 404.377ZM1462.72 404.377C1474.31 404.377 1483.96 396.164 1486.21 385.242C1486.38 384.47 1486.5 383.658 1486.56 382.865C1486.63 382.073 1486.69 381.24 1486.69 380.406C1486.69 360.833 1502.55 344.971 1522.12 344.971C1541.7 344.971 1557.56 360.833 1557.56 380.406C1557.56 399.979 1541.7 415.841 1522.12 415.841C1508.89 415.841 1498.15 426.576 1498.15 439.812C1498.15 459.384 1482.29 475.247 1462.72 475.247C1443.15 475.247 1427.28 459.384 1427.28 439.812C1427.28 420.239 1443.15 404.377 1462.72 404.377ZM1546.1 321C1546.1 301.427 1561.96 285.565 1581.53 285.565C1594.77 285.565 1605.5 274.83 1605.5 261.594C1605.5 242.022 1621.36 226.159 1640.94 226.159C1660.51 226.159 1676.37 242.022 1676.37 261.594C1676.37 274.83 1687.11 285.565 1700.34 285.565C1719.92 285.565 1735.78 301.427 1735.78 321C1735.78 340.573 1719.92 356.435 1700.34 356.435C1680.77 356.435 1664.91 340.573 1664.91 321C1664.91 307.764 1654.17 297.029 1640.94 297.029C1627.7 297.029 1616.97 307.764 1616.97 321C1616.97 340.573 1601.1 356.435 1581.53 356.435C1561.96 356.435 1546.1 340.573 1546.1 321ZM1640.94 344.971C1660.51 344.971 1676.37 360.833 1676.37 380.406C1676.37 393.642 1687.11 404.377 1700.34 404.377C1719.92 404.377 1735.78 420.239 1735.78 439.812C1735.78 459.384 1719.92 475.247 1700.34 475.247C1680.77 475.247 1664.91 459.384 1664.91 439.812C1664.91 426.576 1654.17 415.841 1640.94 415.841C1621.36 415.841 1605.5 399.979 1605.5 380.406C1605.5 360.833 1621.36 344.971 1640.94 344.971ZM1724.31 380.406C1724.31 360.833 1740.18 344.971 1759.75 344.971C1779.32 344.971 1795.18 360.833 1795.18 380.406C1795.18 393.642 1805.92 404.377 1819.16 404.377C1838.73 404.377 1854.59 420.239 1854.59 439.812C1854.59 459.384 1838.73 475.247 1819.16 475.247C1799.58 475.247 1783.72 459.384 1783.72 439.812C1783.72 426.576 1772.99 415.841 1759.75 415.841C1740.18 415.841 1724.31 399.979 1724.31 380.406ZM1843.13 380.406C1843.13 360.833 1858.99 344.971 1878.56 344.971C1898.13 344.971 1914 360.833 1914 380.406C1914 399.979 1898.13 415.841 1878.56 415.841C1858.99 415.841 1843.13 399.979 1843.13 380.406ZM2318.38 261.594C2318.38 242.022 2334.24 226.159 2353.81 226.159C2373.38 226.159 2389.25 242.022 2389.25 261.594C2389.25 281.167 2373.38 297.029 2353.81 297.029C2334.24 297.029 2318.38 281.167 2318.38 261.594ZM2329.84 321C2329.84 340.573 2313.98 356.435 2294.4 356.435C2274.83 356.435 2258.97 340.573 2258.97 321C2258.97 301.427 2274.83 285.565 2294.4 285.565C2313.98 285.565 2329.84 301.427 2329.84 321ZM2294.4 237.623C2274.83 237.623 2258.97 221.761 2258.97 202.188C2258.97 182.616 2274.83 166.753 2294.4 166.753C2313.98 166.753 2329.84 182.616 2329.84 202.188C2329.84 221.761 2313.98 237.623 2294.4 237.623ZM2270.43 261.594C2270.43 281.167 2254.57 297.029 2235 297.029C2215.43 297.029 2199.56 281.167 2199.56 261.594C2199.56 242.022 2215.43 226.159 2235 226.159C2254.57 226.159 2270.43 242.022 2270.43 261.594ZM2211.03 321C2211.03 340.573 2195.16 356.435 2175.59 356.435C2156.02 356.435 2140.16 340.573 2140.16 321C2140.16 301.427 2156.02 285.565 2175.59 285.565C2195.16 285.565 2211.03 301.427 2211.03 321ZM2175.59 237.623C2156.02 237.623 2140.16 221.761 2140.16 202.188C2140.16 182.616 2156.02 166.753 2175.59 166.753C2195.16 166.753 2211.03 182.616 2211.03 202.188C2211.03 221.761 2195.16 237.623 2175.59 237.623ZM2151.62 261.594C2151.62 281.167 2135.76 297.029 2116.19 297.029C2096.61 297.029 2080.75 281.167 2080.75 261.594C2080.75 242.022 2096.61 226.159 2116.19 226.159C2135.76 226.159 2151.62 242.022 2151.62 261.594ZM2092.22 321C2092.22 340.573 2076.35 356.435 2056.78 356.435C2037.21 356.435 2021.34 340.573 2021.34 321C2021.34 301.427 2037.21 285.565 2056.78 285.565C2076.35 285.565 2092.22 301.427 2092.22 321ZM2056.78 237.623C2043.54 237.623 2032.81 248.358 2032.81 261.594C2032.81 281.167 2016.95 297.029 1997.37 297.029C1977.8 297.029 1961.94 281.167 1961.94 261.594C1961.94 242.022 1977.8 226.159 1997.37 226.159C2010.61 226.159 2021.34 215.424 2021.34 202.188C2021.34 182.616 2037.21 166.753 2056.78 166.753C2076.35 166.753 2092.22 182.616 2092.22 202.188C2092.22 221.761 2076.35 237.623 2056.78 237.623ZM1973.4 321C1973.4 340.573 1957.54 356.435 1937.97 356.435C1918.39 356.435 1902.53 340.573 1902.53 321C1902.53 307.764 1891.8 297.029 1878.56 297.029C1858.99 297.029 1843.13 281.167 1843.13 261.594C1843.13 242.022 1858.99 226.159 1878.56 226.159C1898.13 226.159 1914 242.022 1914 261.594C1914 274.83 1924.73 285.565 1937.97 285.565C1957.54 285.565 1973.4 301.427 1973.4 321ZM1937.97 404.377C1957.54 404.377 1973.4 420.239 1973.4 439.812C1973.4 459.384 1957.54 475.247 1937.97 475.247C1918.39 475.247 1902.53 459.384 1902.53 439.812C1902.53 420.239 1918.39 404.377 1937.97 404.377ZM1961.94 380.406C1961.94 360.833 1977.8 344.971 1997.37 344.971C2016.95 344.971 2032.81 360.833 2032.81 380.406C2032.81 399.979 2016.95 415.841 1997.37 415.841C1977.8 415.841 1961.94 399.979 1961.94 380.406ZM2056.78 404.377C2076.35 404.377 2092.22 420.239 2092.22 439.812C2092.22 459.384 2076.35 475.247 2056.78 475.247C2037.21 475.247 2021.34 459.384 2021.34 439.812C2021.34 420.239 2037.21 404.377 2056.78 404.377ZM2080.75 380.406C2080.75 360.833 2096.61 344.971 2116.19 344.971C2135.76 344.971 2151.62 360.833 2151.62 380.406C2151.62 399.979 2135.76 415.841 2116.19 415.841C2096.61 415.841 2080.75 399.979 2080.75 380.406ZM2175.59 404.377C2195.16 404.377 2211.03 420.239 2211.03 439.812C2211.03 459.384 2195.16 475.247 2175.59 475.247C2156.02 475.247 2140.16 459.384 2140.16 439.812C2140.16 420.239 2156.02 404.377 2175.59 404.377ZM2199.56 380.406C2199.56 360.833 2215.43 344.971 2235 344.971C2254.57 344.971 2270.43 360.833 2270.43 380.406C2270.43 399.979 2254.57 415.841 2235 415.841C2215.43 415.841 2199.56 399.979 2199.56 380.406ZM2294.4 404.377C2313.98 404.377 2329.84 420.239 2329.84 439.812C2329.84 459.384 2313.98 475.247 2294.4 475.247C2274.83 475.247 2258.97 459.384 2258.97 439.812C2258.97 420.239 2274.83 404.377 2294.4 404.377ZM2318.38 380.406C2318.38 360.833 2334.24 344.971 2353.81 344.971C2373.38 344.971 2389.25 360.833 2389.25 380.406C2389.25 399.979 2373.38 415.841 2353.81 415.841C2334.24 415.841 2318.38 399.979 2318.38 380.406ZM2413.22 404.377C2432.79 404.377 2448.65 420.239 2448.65 439.812C2448.65 459.384 2432.79 475.247 2413.22 475.247C2393.64 475.247 2377.78 459.384 2377.78 439.812C2377.78 420.239 2393.64 404.377 2413.22 404.377ZM2377.78 321C2377.78 301.427 2393.64 285.565 2413.22 285.565C2432.79 285.565 2448.65 301.427 2448.65 321C2448.65 340.573 2432.79 356.435 2413.22 356.435C2393.64 356.435 2377.78 340.573 2377.78 321ZM2377.78 202.188C2377.78 182.616 2393.64 166.753 2413.22 166.753C2432.79 166.753 2448.65 182.616 2448.65 202.188C2448.65 221.761 2432.79 237.623 2413.22 237.623C2393.64 237.623 2377.78 221.761 2377.78 202.188ZM2389.25 142.782C2389.25 162.355 2373.38 178.218 2353.81 178.218C2334.24 178.218 2318.38 162.355 2318.38 142.782C2318.38 123.21 2334.24 107.347 2353.81 107.347C2373.38 107.347 2389.25 123.21 2389.25 142.782ZM2294.4 47.9416C2313.98 47.9416 2329.84 63.804 2329.84 83.3766C2329.84 102.949 2313.98 118.812 2294.4 118.812C2274.83 118.812 2258.97 102.949 2258.97 83.3766C2258.97 63.804 2274.83 47.9416 2294.4 47.9416ZM2270.43 142.782C2270.43 162.355 2254.57 178.218 2235 178.218C2215.43 178.218 2199.56 162.355 2199.56 142.782C2199.56 123.21 2215.43 107.347 2235 107.347C2254.57 107.347 2270.43 123.21 2270.43 142.782ZM2175.59 47.9416C2195.16 47.9416 2211.03 63.804 2211.03 83.3766C2211.03 102.949 2195.16 118.812 2175.59 118.812C2156.02 118.812 2140.16 102.949 2140.16 83.3766C2140.16 63.804 2156.02 47.9416 2175.59 47.9416ZM2151.62 142.782C2151.62 162.355 2135.76 178.218 2116.19 178.218C2096.61 178.218 2080.75 162.355 2080.75 142.782C2080.75 123.21 2096.61 107.347 2116.19 107.347C2135.76 107.347 2151.62 123.21 2151.62 142.782ZM2056.78 47.9416C2076.35 47.9416 2092.22 63.804 2092.22 83.3766C2092.22 102.949 2076.35 118.812 2056.78 118.812C2037.21 118.812 2021.34 102.949 2021.34 83.3766C2021.34 63.804 2037.21 47.9416 2056.78 47.9416ZM1878.56 107.347C1898.13 107.347 1914 123.21 1914 142.782C1914 156.019 1924.73 166.753 1937.97 166.753C1951.2 166.753 1961.94 156.019 1961.94 142.782C1961.94 123.21 1977.8 107.347 1997.37 107.347C2016.95 107.347 2032.81 123.21 2032.81 142.782C2032.81 162.355 2016.95 178.218 1997.37 178.218C1984.14 178.218 1973.4 188.952 1973.4 202.188C1973.4 221.761 1957.54 237.623 1937.97 237.623C1918.39 237.623 1902.53 221.761 1902.53 202.188C1902.53 188.952 1891.8 178.218 1878.56 178.218C1858.99 178.218 1843.13 162.355 1843.13 142.782C1843.13 123.21 1858.99 107.347 1878.56 107.347ZM1759.21 107.347C1759.29 107.347 1759.39 107.327 1759.48 107.327C1759.56 107.327 1759.67 107.347 1759.75 107.347C1779.32 107.347 1795.18 123.21 1795.18 142.782C1795.18 156.019 1805.92 166.753 1819.16 166.753C1838.73 166.753 1854.59 182.616 1854.59 202.188C1854.59 221.761 1838.73 237.623 1819.16 237.623C1799.58 237.623 1783.72 221.761 1783.72 202.188C1783.72 188.952 1772.99 178.218 1759.75 178.218C1740.18 178.218 1724.31 162.355 1724.31 142.782C1724.31 141.49 1724.19 140.219 1723.98 138.989C1725.88 121.209 1740.93 107.347 1759.21 107.347ZM1676.16 138.989C1675.98 140.219 1675.83 141.49 1675.83 142.782C1675.83 156.019 1686.56 166.753 1699.8 166.753C1699.88 166.753 1699.99 166.732 1700.07 166.732C1700.16 166.732 1700.26 166.753 1700.34 166.753C1719.92 166.753 1735.78 182.616 1735.78 202.188C1735.78 215.424 1746.51 226.159 1759.75 226.159C1779.32 226.159 1795.18 242.022 1795.18 261.594C1795.18 274.83 1805.92 285.565 1819.16 285.565C1838.73 285.565 1854.59 301.427 1854.59 321C1854.59 340.573 1838.73 356.435 1819.16 356.435C1799.58 356.435 1783.72 340.573 1783.72 321C1783.72 307.764 1772.99 297.029 1759.75 297.029C1740.18 297.029 1724.31 281.167 1724.31 261.594C1724.31 248.358 1713.58 237.623 1700.34 237.623C1680.77 237.623 1664.91 221.761 1664.91 202.188C1664.91 188.952 1654.17 178.218 1640.94 178.218C1621.36 178.218 1605.5 162.355 1605.5 142.782C1605.5 123.21 1621.36 107.347 1640.94 107.347C1659.22 107.347 1674.27 121.209 1676.16 138.989ZM1581.53 47.9416C1601.1 47.9416 1616.97 63.804 1616.97 83.3766C1616.97 102.949 1601.1 118.812 1581.53 118.812C1561.96 118.812 1546.1 102.949 1546.1 83.3766C1546.1 63.804 1561.96 47.9416 1581.53 47.9416ZM1469.85 165.669C1470.6 165.44 1471.33 165.169 1472.06 164.856C1473.49 164.252 1474.85 163.502 1476.12 162.647C1476.77 162.209 1477.37 161.751 1477.98 161.271C1480.35 159.312 1482.33 156.915 1483.81 154.205C1485.67 150.807 1486.71 146.91 1486.71 142.782C1486.71 123.21 1502.57 107.347 1522.15 107.347C1541.72 107.347 1557.58 123.21 1557.58 142.782C1557.58 162.355 1541.72 178.218 1522.15 178.218C1508.91 178.218 1498.17 188.952 1498.17 202.188C1498.17 221.761 1482.31 237.623 1462.74 237.623C1443.17 237.623 1427.3 221.761 1427.3 202.188C1427.3 182.616 1443.17 166.753 1462.74 166.753C1465.2 166.753 1467.6 166.378 1469.85 165.669ZM1367.88 142.782C1367.88 123.21 1383.74 107.347 1403.31 107.347C1422.89 107.347 1438.75 123.21 1438.75 142.782C1438.75 162.355 1422.89 178.218 1403.31 178.218C1390.08 178.218 1379.34 188.952 1379.34 202.188C1379.34 221.761 1363.48 237.623 1343.91 237.623C1324.33 237.623 1308.47 221.761 1308.47 202.188C1308.47 182.616 1324.33 166.753 1343.91 166.753C1357.14 166.753 1367.88 156.019 1367.88 142.782ZM1225.09 166.753C1238.33 166.753 1249.06 156.019 1249.06 142.782C1249.06 123.21 1264.93 107.347 1284.5 107.347C1304.07 107.347 1319.94 123.21 1319.94 142.782C1319.94 162.355 1304.07 178.218 1284.5 178.218C1271.26 178.218 1260.53 188.952 1260.53 202.188C1260.53 221.761 1244.67 237.623 1225.09 237.623C1205.52 237.623 1189.66 221.761 1189.66 202.188C1189.66 182.616 1205.52 166.753 1225.09 166.753ZM1130.25 142.782C1130.25 123.21 1146.11 107.347 1165.69 107.347C1185.26 107.347 1201.12 123.21 1201.12 142.782C1201.12 162.355 1185.26 178.218 1165.69 178.218C1146.11 178.218 1130.25 162.355 1130.25 142.782ZM987.469 118.812C967.896 118.812 952.034 102.949 952.034 83.3766C952.034 63.804 967.896 47.9416 987.469 47.9416C1007.04 47.9416 1022.9 63.804 1022.9 83.3766C1022.9 102.949 1007.04 118.812 987.469 118.812ZM1011.44 142.782C1011.44 123.21 1027.3 107.347 1046.88 107.347C1066.45 107.347 1082.31 123.21 1082.31 142.782C1082.31 162.355 1066.45 178.218 1046.88 178.218C1027.3 178.218 1011.44 162.355 1011.44 142.782ZM987.469 356.435C967.896 356.435 952.034 340.573 952.034 321C952.034 301.427 967.896 285.565 987.469 285.565C1007.04 285.565 1022.9 301.427 1022.9 321C1022.9 340.573 1007.04 356.435 987.469 356.435ZM1046.88 415.841C1027.3 415.841 1011.44 399.979 1011.44 380.406C1011.44 360.833 1027.3 344.971 1046.88 344.971C1066.45 344.971 1082.31 360.833 1082.31 380.406C1082.31 399.979 1066.45 415.841 1046.88 415.841ZM1070.85 321C1070.85 307.764 1060.11 297.029 1046.88 297.029C1027.3 297.029 1011.44 281.167 1011.44 261.594C1011.44 242.022 1027.3 226.159 1046.88 226.159C1066.45 226.159 1082.31 242.022 1082.31 261.594C1082.31 274.83 1093.05 285.565 1106.28 285.565C1119.52 285.565 1130.25 274.83 1130.25 261.594C1130.25 248.358 1119.52 237.623 1106.28 237.623C1086.71 237.623 1070.85 221.761 1070.85 202.188C1070.85 182.616 1086.71 166.753 1106.28 166.753C1125.85 166.753 1141.72 182.616 1141.72 202.188C1141.72 215.424 1152.45 226.159 1165.69 226.159C1185.26 226.159 1201.12 242.022 1201.12 261.594C1201.12 281.167 1185.26 297.029 1165.69 297.029C1152.45 297.029 1141.72 307.764 1141.72 321C1141.72 340.573 1125.85 356.435 1106.28 356.435C1086.71 356.435 1070.85 340.573 1070.85 321ZM1130.25 380.406C1130.25 360.833 1146.11 344.971 1165.69 344.971C1185.26 344.971 1201.12 360.833 1201.12 380.406C1201.12 399.979 1185.26 415.841 1165.69 415.841C1146.11 415.841 1130.25 399.979 1130.25 380.406ZM1189.66 439.812C1189.66 420.239 1205.52 404.377 1225.09 404.377C1238.33 404.377 1249.06 393.642 1249.06 380.406C1249.06 360.833 1264.93 344.971 1284.5 344.971C1304.07 344.971 1319.94 360.833 1319.94 380.406C1319.94 399.979 1304.07 415.841 1284.5 415.841C1271.26 415.841 1260.53 426.576 1260.53 439.812C1260.53 459.384 1244.67 475.247 1225.09 475.247C1205.52 475.247 1189.66 459.384 1189.66 439.812ZM1343.91 594.058C1324.33 594.058 1308.47 578.196 1308.47 558.623C1308.47 545.387 1297.74 534.653 1284.5 534.653C1264.93 534.653 1249.06 518.79 1249.06 499.218C1249.06 479.645 1264.93 463.782 1284.5 463.782C1304.07 463.782 1319.94 479.645 1319.94 499.218C1319.94 512.454 1330.67 523.188 1343.91 523.188C1363.48 523.188 1379.34 539.051 1379.34 558.623C1379.34 578.196 1363.48 594.058 1343.91 594.058ZM1522.12 534.653C1508.89 534.653 1498.15 545.387 1498.15 558.623C1498.15 578.196 1482.29 594.058 1462.72 594.058C1443.15 594.058 1427.28 578.196 1427.28 558.623C1427.28 545.387 1416.55 534.653 1403.31 534.653C1383.74 534.653 1367.88 518.79 1367.88 499.218C1367.88 479.645 1383.74 463.782 1403.31 463.782C1422.89 463.782 1438.75 479.645 1438.75 499.218C1438.75 512.454 1449.48 523.188 1462.72 523.188C1475.95 523.188 1486.69 512.454 1486.69 499.218C1486.69 479.645 1502.55 463.782 1522.12 463.782C1541.7 463.782 1557.56 479.645 1557.56 499.218C1557.56 518.79 1541.7 534.653 1522.12 534.653ZM1546.1 439.812C1546.1 420.239 1561.96 404.377 1581.53 404.377C1601.1 404.377 1616.97 420.239 1616.97 439.812C1616.97 459.384 1601.1 475.247 1581.53 475.247C1561.96 475.247 1546.1 459.384 1546.1 439.812ZM1819.16 594.058C1799.58 594.058 1783.72 578.196 1783.72 558.623C1783.72 545.387 1772.99 534.653 1759.75 534.653C1746.51 534.653 1735.78 545.387 1735.78 558.623C1735.78 578.196 1719.92 594.058 1700.34 594.058C1680.77 594.058 1664.91 578.196 1664.91 558.623C1664.91 545.387 1654.17 534.653 1640.94 534.653C1621.36 534.653 1605.5 518.79 1605.5 499.218C1605.5 479.645 1621.36 463.782 1640.94 463.782C1660.51 463.782 1676.37 479.645 1676.37 499.218C1676.37 512.454 1687.11 523.188 1700.34 523.188C1713.58 523.188 1724.31 512.454 1724.31 499.218C1724.31 479.645 1740.18 463.782 1759.75 463.782C1779.32 463.782 1795.18 479.645 1795.18 499.218C1795.18 512.454 1805.92 523.188 1819.16 523.188C1838.73 523.188 1854.59 539.051 1854.59 558.623C1854.59 578.196 1838.73 594.058 1819.16 594.058ZM1937.97 594.058C1918.39 594.058 1902.53 578.196 1902.53 558.623C1902.53 545.387 1891.8 534.653 1878.56 534.653C1858.99 534.653 1843.13 518.79 1843.13 499.218C1843.13 479.645 1858.99 463.782 1878.56 463.782C1898.13 463.782 1914 479.645 1914 499.218C1914 512.454 1924.73 523.188 1937.97 523.188C1957.54 523.188 1973.4 539.051 1973.4 558.623C1973.4 578.196 1957.54 594.058 1937.97 594.058ZM2056.78 594.058C2037.21 594.058 2021.34 578.196 2021.34 558.623C2021.34 545.387 2010.61 534.653 1997.37 534.653C1977.8 534.653 1961.94 518.79 1961.94 499.218C1961.94 479.645 1977.8 463.782 1997.37 463.782C2016.95 463.782 2032.81 479.645 2032.81 499.218C2032.81 512.454 2043.54 523.188 2056.78 523.188C2076.35 523.188 2092.22 539.051 2092.22 558.623C2092.22 578.196 2076.35 594.058 2056.78 594.058ZM2080.75 499.218C2080.75 479.645 2096.61 463.782 2116.19 463.782C2135.76 463.782 2151.62 479.645 2151.62 499.218C2151.62 518.79 2135.76 534.653 2116.19 534.653C2096.61 534.653 2080.75 518.79 2080.75 499.218ZM2175.59 594.058C2156.02 594.058 2140.16 578.196 2140.16 558.623C2140.16 539.051 2156.02 523.188 2175.59 523.188C2195.16 523.188 2211.03 539.051 2211.03 558.623C2211.03 578.196 2195.16 594.058 2175.59 594.058ZM2199.56 499.218C2199.56 479.645 2215.43 463.782 2235 463.782C2254.57 463.782 2270.43 479.645 2270.43 499.218C2270.43 518.79 2254.57 534.653 2235 534.653C2215.43 534.653 2199.56 518.79 2199.56 499.218ZM2294.4 594.058C2274.83 594.058 2258.97 578.196 2258.97 558.623C2258.97 539.051 2274.83 523.188 2294.4 523.188C2313.98 523.188 2329.84 539.051 2329.84 558.623C2329.84 578.196 2313.98 594.058 2294.4 594.058ZM2318.38 499.218C2318.38 479.645 2334.24 463.782 2353.81 463.782C2373.38 463.782 2389.25 479.645 2389.25 499.218C2389.25 518.79 2373.38 534.653 2353.81 534.653C2334.24 534.653 2318.38 518.79 2318.38 499.218ZM2413.22 594.058C2393.64 594.058 2377.78 578.196 2377.78 558.623C2377.78 539.051 2393.64 523.188 2413.22 523.188C2432.79 523.188 2448.65 539.051 2448.65 558.623C2448.65 578.196 2432.79 594.058 2413.22 594.058ZM2508.06 499.218C2508.06 518.79 2492.2 534.653 2472.62 534.653C2453.05 534.653 2437.19 518.79 2437.19 499.218C2437.19 479.645 2453.05 463.782 2472.62 463.782C2492.2 463.782 2508.06 479.645 2508.06 499.218ZM2508.06 380.406C2508.06 399.979 2492.2 415.841 2472.62 415.841C2453.05 415.841 2437.19 399.979 2437.19 380.406C2437.19 360.833 2453.05 344.971 2472.62 344.971C2492.2 344.971 2508.06 360.833 2508.06 380.406ZM2508.06 261.594C2508.06 281.167 2492.2 297.029 2472.62 297.029C2453.05 297.029 2437.19 281.167 2437.19 261.594C2437.19 242.022 2453.05 226.159 2472.62 226.159C2492.2 226.159 2508.06 242.022 2508.06 261.594ZM2472.62 178.218C2453.05 178.218 2437.19 162.355 2437.19 142.782C2437.19 123.21 2453.05 107.347 2472.62 107.347C2492.2 107.347 2508.06 123.21 2508.06 142.782C2508.06 162.355 2492.2 178.218 2472.62 178.218Z" fill="white"/>
</g>
<path d="M653.995 82.9702C654.015 86.1261 653.41 89.2547 652.214 92.175C651.019 95.0952 649.257 97.7491 647.03 99.9831C644.802 102.217 642.155 103.987 639.24 105.19C636.325 106.393 633.201 107.005 630.048 106.991C620.672 107.041 611.698 110.804 605.085 117.458C598.473 124.112 594.761 133.115 594.761 142.5C594.761 151.886 598.473 160.889 605.085 167.543C611.698 174.197 620.672 177.96 630.048 178.01C636.386 178.051 642.45 180.599 646.918 185.1C651.385 189.6 653.892 195.687 653.892 202.031C653.892 208.375 651.385 214.462 646.918 218.962C642.45 223.463 636.386 226.012 630.048 226.053C625.394 226.054 620.785 226.973 616.485 228.759C612.186 230.545 608.281 233.162 604.993 236.46C601.705 239.758 599.099 243.673 597.324 247.98C595.549 252.288 594.64 256.903 594.649 261.562C594.649 261.562 594.649 261.57 594.649 261.574C594.649 261.578 594.649 261.582 594.649 261.586C594.64 266.245 595.55 270.861 597.324 275.168C599.099 279.475 601.705 283.39 604.993 286.688C608.281 289.986 612.186 292.603 616.486 294.388C620.785 296.174 625.394 297.094 630.048 297.095C635.779 297.111 641.316 299.178 645.658 302.922C650 306.666 652.861 311.841 653.725 317.512C654.589 323.183 653.399 328.977 650.37 333.846C647.341 338.716 642.672 342.341 637.206 344.067C634.865 344.795 632.427 345.163 629.976 345.16C625.324 345.152 620.717 346.066 616.419 347.849C612.121 349.631 608.218 352.247 604.935 355.546C601.651 358.844 599.052 362.76 597.287 367.069C595.522 371.377 594.625 375.992 594.649 380.648C594.681 385.776 593.062 390.778 590.033 394.913C587.003 399.048 582.724 402.096 577.829 403.607C575.498 404.329 573.071 404.695 570.63 404.691H570.554C567.401 404.705 564.276 404.093 561.361 402.891C558.446 401.688 555.798 399.918 553.57 397.684C551.343 395.45 549.58 392.796 548.385 389.875C547.189 386.955 546.584 383.826 546.604 380.669C546.613 376.01 545.704 371.395 543.929 367.088C542.154 362.781 539.549 358.866 536.261 355.568C532.973 352.27 529.068 349.654 524.769 347.868C520.47 346.082 515.862 345.162 511.207 345.161C508.054 345.174 504.93 344.562 502.015 343.359C499.1 342.156 496.452 340.386 494.225 338.152C491.998 335.918 490.236 333.264 489.04 330.343C487.845 327.423 487.24 324.294 487.261 321.138C487.261 321.138 487.261 321.131 487.261 321.127C487.261 321.123 487.261 321.12 487.261 321.116C487.24 317.96 487.845 314.831 489.041 311.911C490.237 308.991 491.999 306.337 494.226 304.103C496.453 301.869 499.1 300.099 502.015 298.896C504.93 297.694 508.054 297.081 511.207 297.095C520.616 297.095 529.639 293.354 536.291 286.694C542.944 280.035 546.682 271.003 546.682 261.585C546.682 252.167 542.944 243.135 536.291 236.476C529.639 229.817 520.616 226.075 511.207 226.075C506.459 226.085 501.814 224.685 497.861 222.052C493.908 219.418 490.825 215.67 489.001 211.282C487.177 206.894 486.694 202.062 487.614 197.399C488.535 192.736 490.816 188.452 494.17 185.087C497.524 181.723 501.8 179.43 506.456 178.499C511.113 177.568 515.94 178.041 520.328 179.857C524.716 181.674 528.467 184.753 531.106 188.704C533.745 192.655 535.154 197.301 535.154 202.054C535.136 211.337 538.758 220.256 545.24 226.895C551.721 233.533 560.546 237.362 569.817 237.557C570.11 237.547 570.405 237.541 570.702 237.541C580.077 237.492 589.052 233.729 595.665 227.075C602.277 220.421 605.989 211.417 605.989 202.032C605.989 192.647 602.277 183.643 595.665 176.989C589.052 170.336 580.077 166.572 570.702 166.523C564.364 166.482 558.299 163.933 553.832 159.433C549.365 154.932 546.858 148.846 546.858 142.501C546.858 136.157 549.365 130.071 553.832 125.57C558.299 121.07 564.364 118.521 570.702 118.48C575.356 118.479 579.965 117.559 584.265 115.773C588.564 113.988 592.469 111.371 595.757 108.073C599.045 104.774 601.651 100.86 603.426 96.5523C605.201 92.245 606.11 87.6296 606.101 82.9702C606.101 79.8224 606.72 76.7054 607.924 73.7972C609.127 70.889 610.891 68.2466 613.115 66.0207C615.338 63.7949 617.978 62.0292 620.883 60.8246C623.789 59.62 626.903 59 630.047 59C633.192 59 636.306 59.62 639.211 60.8246C642.117 62.0292 644.756 63.7949 646.98 66.0207C649.204 68.2466 650.968 70.889 652.171 73.7972C653.374 76.7054 653.994 79.8224 653.994 82.9702H653.995ZM606.029 321.138C606.038 316.478 605.129 311.863 603.354 307.556C601.579 303.249 598.973 299.335 595.685 296.037C592.397 292.739 588.492 290.122 584.193 288.336C579.893 286.551 575.285 285.631 570.63 285.63H570.554C561.227 285.658 552.286 289.362 545.667 295.941C539.048 302.519 535.283 311.442 535.188 320.778C535.092 330.114 538.674 339.112 545.158 345.824C551.641 352.536 560.504 356.422 569.829 356.641C570.118 356.632 570.407 356.627 570.698 356.627C575.35 356.635 579.958 355.721 584.256 353.939C588.554 352.157 592.458 349.541 595.742 346.242C599.026 342.944 601.626 339.027 603.391 334.719C605.157 330.41 606.053 325.795 606.029 321.138ZM534.356 142.225C534.377 145.381 533.772 148.51 532.576 151.431C531.381 154.352 529.618 157.007 527.391 159.241C525.164 161.476 522.516 163.246 519.601 164.449C516.685 165.652 513.561 166.264 510.407 166.251C500.999 166.251 491.976 169.992 485.323 176.651C478.67 183.311 474.933 192.343 474.933 201.76C474.933 211.178 478.67 220.21 485.323 226.87C491.976 233.529 500.999 237.27 510.407 237.27C516.745 237.311 522.809 239.86 527.277 244.36C531.744 248.861 534.251 254.947 534.251 261.292C534.251 267.636 531.744 273.722 527.277 278.223C522.809 282.723 516.745 285.272 510.407 285.313C505.752 285.314 501.144 286.233 496.844 288.019C492.545 289.805 488.64 292.422 485.352 295.72C482.064 299.018 479.458 302.933 477.683 307.24C475.908 311.547 474.999 316.162 475.008 320.822C475.045 326.559 473.016 332.117 469.293 336.478C465.569 340.839 460.4 343.71 454.733 344.566C453.469 344.765 452.193 344.865 450.914 344.865C446.259 344.865 441.65 345.785 437.35 347.571C433.051 349.357 429.146 351.973 425.858 355.272C422.57 358.57 419.964 362.485 418.189 366.792C416.414 371.099 415.505 375.715 415.513 380.374C415.513 386.732 412.991 392.829 408.5 397.324C404.009 401.819 397.918 404.345 391.567 404.345C385.216 404.345 379.125 401.819 374.634 397.324C370.143 392.829 367.621 386.732 367.621 380.374C367.6 377.218 368.205 374.09 369.401 371.169C370.597 368.249 372.359 365.595 374.586 363.361C376.813 361.127 379.461 359.357 382.376 358.155C385.291 356.952 388.415 356.34 391.568 356.353C400.976 356.353 410 352.612 416.652 345.953C423.305 339.293 427.043 330.261 427.043 320.844C427.043 311.426 423.305 302.394 416.652 295.734C410 289.075 400.976 285.334 391.568 285.334C386.82 285.344 382.175 283.944 378.222 281.311C374.269 278.677 371.185 274.93 369.361 270.541C367.537 266.153 367.054 261.321 367.974 256.658C368.894 251.995 371.176 247.71 374.53 244.346C377.884 240.981 382.159 238.688 386.816 237.757C391.472 236.826 396.3 237.299 400.688 239.116C405.076 240.932 408.827 244.011 411.466 247.962C414.105 251.914 415.513 256.56 415.513 261.313C415.496 270.596 419.118 279.516 425.601 286.155C432.084 292.794 440.911 296.621 450.183 296.815C450.474 296.804 450.769 296.799 451.063 296.799C460.438 296.749 469.413 292.986 476.025 286.332C482.638 279.678 486.349 270.675 486.349 261.29C486.349 251.904 482.638 242.901 476.025 236.247C469.413 229.593 460.438 225.83 451.063 225.78C447.899 225.784 444.766 225.164 441.842 223.956C438.918 222.747 436.26 220.974 434.02 218.738C431.781 216.502 430.003 213.845 428.789 210.921C427.575 207.997 426.948 204.862 426.944 201.696C426.895 192.311 423.135 183.327 416.488 176.708C409.841 170.089 400.846 166.374 391.47 166.374C382.094 166.374 373.1 170.089 366.452 176.708C359.805 183.327 356.046 192.311 355.996 201.696C356.006 206.449 354.608 211.099 351.977 215.056C349.346 219.013 345.602 222.1 341.217 223.926C336.833 225.752 332.006 226.235 327.348 225.314C322.689 224.393 318.408 222.109 315.047 218.751C311.686 215.394 309.395 211.114 308.465 206.452C307.535 201.791 308.007 196.958 309.822 192.566C311.637 188.174 314.713 184.419 318.661 181.777C322.609 179.135 327.25 177.725 331.999 177.726C336.654 177.734 341.265 176.824 345.568 175.048C349.871 173.271 353.782 170.663 357.077 167.371C360.371 164.08 362.986 160.171 364.77 155.868C366.554 151.564 367.473 146.951 367.474 142.291C367.474 135.921 370.002 129.811 374.502 125.306C379.003 120.801 385.106 118.27 391.471 118.27C397.835 118.27 403.939 120.801 408.439 125.306C412.94 129.811 415.468 135.921 415.468 142.291C415.469 146.951 416.388 151.564 418.172 155.868C419.956 160.171 422.571 164.08 425.866 167.372C429.161 170.663 433.072 173.271 437.375 175.048C441.678 176.825 446.289 177.734 450.943 177.726C451.157 177.726 451.37 177.728 451.582 177.733C460.891 177.593 469.771 173.788 476.298 167.143C482.826 160.497 486.475 151.545 486.458 142.226C486.437 139.065 487.042 135.931 488.236 133.005C489.43 130.079 491.191 127.418 493.417 125.176C495.643 122.934 498.289 121.154 501.205 119.94C504.12 118.725 507.247 118.1 510.405 118.1C513.562 118.1 516.689 118.725 519.605 119.94C522.52 121.154 525.167 122.934 527.393 125.176C529.618 127.418 531.379 130.079 532.573 133.005C533.768 135.931 534.372 139.065 534.352 142.226L534.356 142.225ZM594.579 202.044C594.578 206.794 593.171 211.438 590.534 215.387C587.898 219.337 584.15 222.416 579.765 224.233C575.381 226.051 570.556 226.527 565.902 225.6C561.247 224.673 556.972 222.385 553.616 219.026C550.26 215.667 547.975 211.387 547.049 206.728C546.124 202.069 546.599 197.24 548.415 192.851C550.231 188.462 553.307 184.711 557.253 182.071C561.199 179.432 565.838 178.024 570.584 178.024C573.735 178.024 576.855 178.645 579.766 179.852C582.678 181.059 585.323 182.828 587.551 185.059C589.779 187.289 591.547 189.937 592.752 192.852C593.958 195.766 594.579 198.889 594.579 202.044ZM474.94 261.3C474.94 266.05 473.532 270.694 470.896 274.644C468.259 278.594 464.511 281.673 460.127 283.491C455.742 285.309 450.918 285.784 446.263 284.857C441.609 283.931 437.333 281.643 433.977 278.284C430.622 274.925 428.336 270.645 427.41 265.986C426.484 261.327 426.96 256.497 428.776 252.108C430.592 247.719 433.667 243.968 437.613 241.329C441.559 238.69 446.199 237.281 450.944 237.281C457.308 237.282 463.411 239.812 467.911 244.317C472.41 248.821 474.938 254.93 474.939 261.3H474.94ZM594.579 321.151C594.579 325.901 593.171 330.545 590.535 334.495C587.898 338.445 584.151 341.523 579.766 343.341C575.382 345.159 570.557 345.635 565.902 344.708C561.248 343.781 556.972 341.494 553.616 338.135C550.261 334.775 547.975 330.496 547.049 325.836C546.124 321.177 546.599 316.348 548.415 311.959C550.231 307.57 553.307 303.819 557.253 301.18C561.199 298.54 565.838 297.132 570.584 297.132C573.735 297.132 576.855 297.753 579.766 298.96C582.677 300.167 585.323 301.936 587.551 304.167C589.779 306.397 591.546 309.045 592.752 311.959C593.958 314.873 594.579 317.996 594.579 321.151ZM474.939 380.407C474.939 385.158 473.531 389.801 470.895 393.751C468.258 397.701 464.51 400.78 460.126 402.598C455.741 404.416 450.917 404.891 446.262 403.964C441.608 403.038 437.332 400.75 433.976 397.391C430.621 394.032 428.335 389.752 427.409 385.093C426.483 380.434 426.959 375.604 428.775 371.215C430.591 366.827 433.666 363.075 437.612 360.436C441.558 357.797 446.198 356.388 450.943 356.388C457.307 356.388 463.41 358.919 467.91 363.423C472.41 367.928 474.938 374.037 474.939 380.407ZM594.579 499.981C594.579 506.351 592.051 512.461 587.551 516.965C583.051 521.469 576.947 524 570.584 524C567.432 524 564.312 523.379 561.401 522.172C558.49 520.965 555.845 519.195 553.616 516.965C551.388 514.735 549.621 512.087 548.415 509.173C547.209 506.259 546.588 503.135 546.588 499.981C546.588 496.827 547.209 493.704 548.415 490.789C549.621 487.875 551.388 485.228 553.616 482.997C555.845 480.767 558.49 478.998 561.401 477.79C564.312 476.583 567.432 475.962 570.584 475.962C573.735 475.962 576.855 476.583 579.766 477.79C582.678 478.997 585.323 480.766 587.551 482.997C589.779 485.227 591.547 487.875 592.752 490.789C593.958 493.703 594.579 496.827 594.579 499.981Z" fill="url(#paint0_linear_21_1435)"/>
</g>
</g>
<defs>
<linearGradient id="paint0_linear_21_1435" x1="654" y1="293.36" x2="308" y2="293.36" gradientUnits="userSpaceOnUse">
<stop stop-color="#D31184"/>
<stop offset="1" stop-color="#FDB913"/>
</linearGradient>
<clipPath id="clip0_21_1435">
<rect width="624" height="663" fill="white"/>
</clipPath>
<clipPath id="clip1_21_1435">
<rect width="2543" height="642" fill="white" transform="translate(13)"/>
</clipPath>
</defs>
</svg>
