<svg width="6375" height="1250" viewBox="0 0 6375 1250" fill="none" xmlns="http://www.w3.org/2000/svg">
<mask id="mask0_229_2569" style="mask-type:luminance" maskUnits="userSpaceOnUse" x="1625" y="362" width="4250" height="522">
<path d="M5875 362H1625V883.861H5875V362Z" fill="white"/>
</mask>
<g mask="url(#mask0_229_2569)">
<path d="M1911.36 529.41L1851.66 689.356H1969.46L1911.37 529.41H1911.36ZM1812.37 788.45L1774.73 875.548H1625L1834.47 374.747H1989.09L2194.48 875.585H2043.1L2007.94 788.487H1812.37V788.45Z" fill="black"/>
<path d="M2398.45 599.289C2454.1 599.289 2486 576 2486 536.958C2486 497.917 2453.29 474.627 2398.45 474.627H2372.27V599.277H2398.45V599.289ZM2683.98 875.596H2507.22L2372.23 683.394V875.596H2230.67V374.758H2450.77C2512.95 374.758 2553.04 388.281 2584.95 419.046C2614.42 447.556 2631.58 488.113 2631.58 529.408C2631.58 604.473 2589.85 654.057 2512.11 670.573L2683.94 875.546L2683.98 875.583V875.596Z" fill="black"/>
<path d="M2858.62 485.159V568.488H3071.27V678.888H2858.62V765.21H3080.26V875.61H2717.06V374.771H3080.26V485.171H2858.62V485.159Z" fill="black"/>
<path d="M3152.1 374.759H3293.65L3554.64 681.129V374.759H3696.2V875.597H3554.64L3293.65 569.227V875.597H3152.1V374.759Z" fill="black"/>
<path d="M4020.41 529.41L3960.68 689.356H4078.5L4020.41 529.41ZM3921.43 788.45L3883.79 875.548H3734.05L3943.52 374.747H4098.16L4303.54 875.585H4152.16L4116.97 788.487H3921.42L3921.45 788.45H3921.43Z" fill="black"/>
<path d="M4666.04 823.773V875.586H4346.29L4526.26 664.578C4592.46 587.259 4612.52 552.7 4612.52 515.149C4612.52 461.082 4569.39 418.272 4512.87 418.272C4456.36 418.272 4419.93 453.532 4413.99 521.147H4358.2C4362.68 476.859 4368.62 455.823 4384.97 431.82C4412.48 392.015 4460.08 367.235 4511.4 367.235C4598.39 367.235 4666.8 431.82 4666.8 514.398C4666.8 570.718 4647.47 605.277 4559.74 706.637L4458.62 823.773H4666.1H4666.02H4666.04Z" fill="black"/>
<path d="M4791.89 624.059C4791.89 743.449 4843.94 832.037 4913.84 832.037C4983.75 832.037 5038.03 741.934 5038.03 624.798C5038.03 507.661 4984.49 418.31 4914.58 418.31C4844.68 418.31 4791.89 508.413 4791.89 624.059ZM5092.31 625.537C5092.31 771.96 5014.99 883.838 4914.57 883.838C4814.15 883.838 4737.6 771.221 4737.6 625.537C4737.6 479.852 4814.95 367.235 4915.34 367.235C5015.74 367.235 5092.31 477.635 5092.31 625.499" fill="black"/>
<path d="M5288.09 588.735C5352.79 587.258 5386.27 557.958 5386.27 503.152C5386.27 455.083 5350.59 418.308 5302.98 418.308C5251.67 418.308 5227.87 440.083 5217.48 498.67H5163.2C5176.59 409.343 5220.45 367.271 5300.78 367.271C5381.11 367.271 5440.59 424.306 5440.59 501.662C5440.59 550.47 5418.26 589.499 5377.4 612.801C5422.74 634.576 5448 678.124 5448 735.196C5448 820.04 5381.83 883.886 5294.1 883.886C5238.32 883.886 5187.78 856.114 5163.98 811.075C5153.55 792.268 5149.86 776.529 5147.63 745.752H5201.17C5209.34 801.271 5243.57 832.073 5296.37 832.073C5349.18 832.073 5393.79 788.524 5393.79 732.229C5393.79 670.674 5358.83 639.133 5288.19 637.606V588.798L5288.09 588.723V588.735Z" fill="black"/>
<path d="M5587.95 714.16C5587.95 779.484 5640 832.035 5704.68 832.035C5769.37 832.035 5820.69 779.484 5820.69 714.16C5820.69 648.837 5768.65 596.285 5704.68 596.285C5640.72 596.285 5587.95 648.837 5587.95 714.16ZM5785.01 393.566L5670.47 554.214C5689.07 548.216 5700.22 546.726 5715.11 546.726C5804.34 546.726 5874.97 619.575 5874.97 712.67C5874.97 805.766 5798.39 883.836 5704.68 883.836C5610.98 883.836 5533.66 807.293 5533.66 712.67C5533.66 676.634 5548.55 635.351 5574.55 599.278L5743.34 361.975L5785 393.528V393.566H5785.01Z" fill="black"/>
</g>
<path d="M375 1000L875 250L1041.66 500L375 1000Z" fill="#FF6200"/>
<path d="M875 1000L1125 625L1375 1000H875Z" fill="#FF6200"/>
</svg>
