<svg width="301" height="251" viewBox="0 0 301 251" fill="none" xmlns="http://www.w3.org/2000/svg">
<g clip-path="url(#clip0_151_22847)">
<mask id="mask0_151_22847" style="mask-type:luminance" maskUnits="userSpaceOnUse" x="0" y="-43" width="380" height="347">
<path d="M379.642 -42.6216L379.642 303.365L0.139954 303.365L0.139938 -42.6216L379.642 -42.6216Z" fill="white"/>
</mask>
<g mask="url(#mask0_151_22847)">
</g>
<g clip-path="url(#clip1_151_22847)">
<path d="M361.019 -47.9666C358.313 -47.9717 355.633 -47.4427 353.131 -46.4097C350.629 -45.3767 348.355 -43.8601 346.44 -41.9467C344.524 -40.0332 343.004 -37.7605 341.967 -35.2584C340.93 -32.7564 340.396 -30.0742 340.395 -27.3653C340.403 -25.5304 340.048 -23.7123 339.349 -22.0159C338.65 -20.3196 337.623 -18.7788 336.325 -17.4827C335.028 -16.1867 333.486 -15.1611 331.79 -14.4653C330.094 -13.7695 328.277 -13.4173 326.444 -13.4292C322.375 -13.4207 318.401 -12.2052 315.022 -9.93634C311.643 -7.66746 309.012 -4.447 307.461 -0.681857C305.91 3.08328 305.508 7.22416 306.307 11.2176C307.106 15.211 309.07 18.8778 311.949 21.7546C314.829 24.6315 318.497 26.5893 322.488 27.3807C326.479 28.1721 330.615 27.7616 334.373 26.2011C338.131 24.6406 341.343 22 343.602 18.6131C345.862 15.2262 347.068 11.2448 347.068 7.17211C347.062 4.40872 347.875 1.70573 349.405 -0.594754C350.934 -2.89523 353.111 -4.68979 355.66 -5.75129C358.209 -6.81278 361.015 -7.09351 363.723 -6.55794C366.432 -6.02236 368.92 -4.69455 370.874 -2.74257C372.829 -0.790586 374.16 1.69782 374.701 4.4077C375.242 7.11758 374.967 9.92711 373.912 12.4807C372.857 15.0343 371.069 17.2172 368.774 18.7531C366.479 20.2889 363.78 21.1087 361.019 21.1088C358.313 21.1036 355.633 21.6327 353.131 22.6656C350.629 23.6985 348.356 25.215 346.44 27.1284C344.524 29.0418 343.005 31.3145 341.967 33.8165C340.93 36.3185 340.396 39.0006 340.395 41.7095C340.395 45.4134 338.925 48.9657 336.309 51.5848C333.692 54.2038 330.144 55.6752 326.443 55.6752C322.743 55.6752 319.194 54.2038 316.578 51.5848C313.962 48.9657 312.492 45.4134 312.492 41.7095C312.492 36.2341 310.319 30.983 306.451 27.1113C302.583 23.2396 297.337 21.0645 291.867 21.0645C286.397 21.0645 281.152 23.2396 277.284 27.1113C273.416 30.983 271.243 36.2341 271.243 41.7095C271.251 43.5444 270.896 45.3627 270.197 47.0591C269.498 48.7555 268.47 50.2963 267.173 51.5924C265.875 52.8886 264.334 53.9142 262.638 54.61C260.942 55.3058 259.124 55.658 257.291 55.6461C253.599 55.6461 250.058 54.1779 247.447 51.5644C244.836 48.9508 243.369 45.4061 243.369 41.7101C243.369 38.014 244.836 34.4693 247.447 31.8558C250.058 29.2423 253.599 27.774 257.291 27.774C259.998 27.7792 262.678 27.2501 265.18 26.2171C267.682 25.1841 269.956 23.6675 271.871 21.754C273.787 19.8404 275.307 17.5676 276.344 15.0655C277.381 12.5634 277.916 9.8811 277.916 7.17212C277.908 5.33727 278.264 3.51906 278.962 1.82269C279.661 0.126326 280.689 -1.41451 281.986 -2.71062C283.284 -4.00673 284.825 -5.0324 286.521 -5.72825C288.217 -6.4241 290.034 -6.77631 291.867 -6.76451C294.574 -6.75939 297.254 -7.28842 299.756 -8.32134C302.257 -9.35427 304.531 -10.8708 306.447 -12.7842C308.362 -14.6976 309.882 -16.9703 310.919 -19.4723C311.957 -21.9743 312.491 -24.6564 312.492 -27.3653C312.484 -29.2001 312.839 -31.0184 313.538 -32.7148C314.237 -34.4112 315.264 -35.9521 316.562 -37.2482C317.859 -38.5443 319.401 -39.57 321.097 -40.2658C322.793 -40.9616 324.61 -41.3138 326.443 -41.3019C329.15 -41.2968 331.83 -41.8259 334.332 -42.8589C336.834 -43.8919 339.108 -45.4086 341.023 -47.3222C342.939 -49.2358 344.459 -51.5087 345.496 -54.0109C346.533 -56.513 347.067 -59.1954 347.068 -61.9044C347.062 -64.6678 347.875 -67.3708 349.405 -69.6712C350.934 -71.9717 353.111 -73.7663 355.66 -74.8278C358.209 -75.8893 361.015 -76.17 363.723 -75.6344C366.432 -75.0988 368.92 -73.771 370.874 -71.8191C372.829 -69.8671 374.16 -67.3787 374.701 -64.6688C375.242 -61.9589 374.967 -59.1494 373.912 -56.5958C372.857 -54.0422 371.069 -51.8593 368.774 -50.3234C366.479 -48.7876 363.78 -47.9677 361.019 -47.9677L361.019 -47.9666Z" fill="white"/>
<path d="M118.987 55.6461C117.154 55.658 115.337 55.3058 113.641 54.61C111.945 53.9142 110.403 52.8886 109.106 51.5924C107.808 50.2963 106.781 48.7555 106.082 47.0591C105.383 45.3627 105.028 43.5444 105.036 41.7095C105.036 36.2341 102.863 30.983 98.995 27.1113C95.1272 23.2396 89.8813 21.0645 84.4114 21.0645C78.9415 21.0645 73.6957 23.2396 69.8279 27.1113C65.9601 30.983 63.7871 36.2341 63.7871 41.7095C63.7871 45.4134 62.3172 48.9657 59.7008 51.5848C57.0843 54.2039 53.5356 55.6752 49.8354 55.6752C46.1352 55.6752 42.5865 54.2039 39.9701 51.5848C37.3536 48.9657 35.8837 45.4134 35.8837 41.7095C35.883 39.0006 35.3488 36.3185 34.3115 33.8165C33.2743 31.3145 31.7544 29.0418 29.8388 27.1284C27.9232 25.215 25.6495 23.6985 23.1478 22.6656C20.6462 21.6327 17.9656 21.1036 15.2594 21.1088C13.4235 21.1206 11.6034 20.7689 9.90389 20.0739C8.20434 19.3788 6.65889 18.3542 5.35651 17.0589C4.05413 15.7636 3.02053 14.2233 2.31522 12.5265C1.6099 10.8298 1.24679 9.01017 1.24679 7.17241C1.24679 5.33464 1.6099 3.51502 2.31522 1.81829C3.02053 0.121551 4.05413 -1.41879 5.35651 -2.71408C6.65889 -4.00937 8.20433 -5.03403 9.90389 -5.72907C11.6034 -6.42411 13.4235 -6.77582 15.2594 -6.76394C17.0924 -6.77581 18.9096 -6.42368 20.6057 -5.72791C22.3019 -5.03213 23.8434 -4.00654 25.1409 -2.71049C26.4385 -1.41444 27.4664 0.126342 28.1651 1.82268C28.8639 3.51902 29.2196 5.33724 29.2117 7.17211C29.2117 12.6475 31.3846 17.8986 35.2524 21.7703C39.1202 25.642 44.3661 27.8171 49.836 27.8171C55.3059 27.8171 60.5518 25.642 64.4196 21.7703C68.2874 17.8986 70.4603 12.6475 70.4603 7.17211C70.4603 3.46816 71.9302 -0.084079 74.5466 -2.70317C77.1631 -5.32225 80.7118 -6.79364 84.412 -6.79364C88.1122 -6.79364 91.6609 -5.32225 94.2774 -2.70317C96.8938 -0.0840801 98.3637 3.46816 98.3637 7.17211C98.3644 9.881 98.8987 12.5632 99.9359 15.0652C100.973 17.5672 102.493 19.8399 104.409 21.7534C106.324 23.6668 108.598 25.1834 111.1 26.2164C113.601 27.2494 116.282 27.7785 118.988 27.7734C122.68 27.7734 126.221 29.2417 128.832 31.8552C131.443 34.4687 132.91 38.0134 132.91 41.7095C132.91 45.4056 131.443 48.9503 128.832 51.5638C126.221 54.1773 122.68 55.6455 118.988 55.6455L118.987 55.6461Z" fill="white"/>
<path d="M28.9825 76.5112C28.9825 68.775 22.794 62.5035 15.1599 62.5035C7.52593 62.5035 1.33734 68.775 1.33734 76.5112C1.33734 84.2474 7.52593 90.5189 15.1599 90.5189C22.794 90.5189 28.9825 84.2474 28.9825 76.5112Z" fill="white"/>
<path d="M291.868 90.1841C294.574 90.1789 297.255 90.708 299.757 91.7409C302.258 92.7739 304.532 94.2905 306.448 96.204C308.363 98.1174 309.883 100.39 310.92 102.892C311.957 105.394 312.492 108.076 312.492 110.785C312.492 114.489 313.962 118.042 316.579 120.661C319.195 123.28 322.744 124.751 326.444 124.751C330.144 124.751 333.693 123.28 336.309 120.661C338.926 118.042 340.396 114.489 340.396 110.785C340.396 108.076 340.93 105.394 341.968 102.892C343.005 100.39 344.525 98.1174 346.44 96.204C348.356 94.2905 350.63 92.7739 353.131 91.7409C355.633 90.708 358.314 90.1789 361.02 90.1841C363.772 90.1782 366.461 89.3559 368.747 87.821C371.032 86.2861 372.812 84.1076 373.861 81.5606C374.91 79.0136 375.182 76.2124 374.641 73.5111C374.101 70.8097 372.772 68.3293 370.824 66.3833C368.876 64.4373 366.395 63.1129 363.695 62.5776C360.996 62.0423 358.198 62.32 355.656 63.3756C353.114 64.4313 350.941 66.2175 349.412 68.5087C347.884 70.7998 347.068 73.493 347.068 76.248C347.068 81.7234 344.895 86.9745 341.028 90.8462C337.16 94.7179 331.914 96.893 326.444 96.893C320.974 96.893 315.728 94.7179 311.86 90.8462C307.993 86.9745 305.82 81.7234 305.82 76.248C305.828 74.4132 305.472 72.595 304.773 70.8986C304.075 69.2023 303.047 67.6615 301.749 66.3655C300.452 65.0694 298.91 64.0438 297.214 63.348C295.518 62.6522 293.701 62.3001 291.868 62.312C288.176 62.312 284.634 63.7803 282.023 66.3938C279.412 69.0074 277.946 72.5522 277.946 76.2483C277.946 79.9445 279.412 83.4892 282.023 86.1028C284.634 88.7164 288.176 90.1841 291.868 90.1841Z" fill="white"/>
<path d="M153.563 21.1087C156.27 21.1036 158.95 21.6327 161.452 22.6656C163.954 23.6986 166.227 25.2152 168.143 27.1286C170.059 29.0421 171.578 31.3149 172.616 33.8169C173.653 36.3189 174.187 39.0012 174.188 41.7101C174.188 45.414 175.658 48.9662 178.274 51.5853C180.89 54.2044 184.439 55.6758 188.139 55.6758C191.84 55.6758 195.388 54.2044 198.005 51.5853C200.621 48.9662 202.091 45.414 202.091 41.7101C202.092 39.0011 202.626 36.3189 203.663 33.8169C204.7 31.3149 206.22 29.0421 208.136 27.1286C210.051 25.2152 212.325 23.6986 214.827 22.6656C217.329 21.6327 220.009 21.1036 222.715 21.1087C225.468 21.1029 228.156 20.2805 230.442 18.7457C232.728 17.2108 234.507 15.0322 235.557 12.4852C236.606 9.93825 236.877 7.13711 236.337 4.43574C235.796 1.73437 234.468 -0.746018 232.52 -2.69204C230.571 -4.63806 228.091 -5.96239 225.391 -6.49772C222.691 -7.03304 219.893 -6.75533 217.351 -5.69968C214.809 -4.64402 212.636 -2.8578 211.108 -0.566673C209.579 1.72445 208.764 4.41766 208.764 7.17269C208.764 12.6481 206.591 17.8992 202.723 21.7709C198.855 25.6426 193.609 27.8177 188.139 27.8177C182.67 27.8177 177.424 25.6426 173.556 21.7709C169.688 17.8992 167.515 12.6481 167.515 7.17269C167.523 5.33785 167.167 3.51964 166.469 1.82331C165.77 0.126967 164.742 -1.41382 163.445 -2.70987C162.147 -4.00594 160.606 -5.03154 158.91 -5.72731C157.214 -6.42309 155.396 -6.77523 153.563 -6.76336C149.871 -6.76336 146.33 -5.29507 143.719 -2.6815C141.108 -0.0679284 139.641 3.47683 139.641 7.17298C139.641 10.8691 141.108 14.4139 143.719 17.0275C146.33 19.641 149.871 21.1087 153.563 21.1087Z" fill="white"/>
<path d="M84.4115 90.1847C81.7053 90.1795 79.0246 90.7086 76.5229 91.7415C74.0212 92.7745 71.7475 94.2911 69.8319 96.2046C67.9163 98.118 66.3964 100.391 65.3592 102.893C64.322 105.395 63.7878 108.077 63.7872 110.786C63.7952 112.621 63.4395 114.439 62.7408 116.135C62.0421 117.832 61.0143 119.372 59.7168 120.669C58.4192 121.965 56.8778 122.99 55.1817 123.686C53.4856 124.382 51.6684 124.734 49.8355 124.722C46.143 124.722 42.6018 123.254 39.9909 120.64C37.3799 118.027 35.9131 114.482 35.9131 110.786C35.9131 107.09 37.3799 103.545 39.9909 100.931C42.6018 98.3176 46.143 96.8494 49.8355 96.8494C52.5417 96.8545 55.2223 96.3254 57.724 95.2925C60.2257 94.2595 62.4994 92.7429 64.415 90.8295C66.3306 88.916 67.8505 86.6432 68.8877 84.1412C69.9249 81.6391 70.4591 78.9569 70.4597 76.248C70.454 73.4846 71.2673 70.7816 72.7969 68.4812C74.3264 66.1807 76.5034 64.3861 79.0522 63.3246C81.601 62.2631 84.4072 61.9824 87.1154 62.518C89.8237 63.0536 92.3124 64.3814 94.2665 66.3334C96.2206 68.2853 97.5523 70.7737 98.0929 73.4836C98.6336 76.1935 98.359 79.003 97.3039 81.5566C96.2488 84.1102 94.4606 86.2931 92.1656 87.829C89.8707 89.3648 87.1721 90.1847 84.4115 90.1847Z" fill="white"/>
<path d="M98.3632 145.323C98.3638 142.614 98.898 139.932 99.9352 137.43C100.972 134.928 102.492 132.655 104.408 130.742C106.324 128.828 108.597 127.312 111.099 126.279C113.601 125.246 116.281 124.717 118.987 124.722C122.68 124.722 126.221 123.254 128.832 120.64C131.443 118.027 132.91 114.482 132.91 110.786C132.91 107.09 131.443 103.545 128.832 100.931C126.221 98.3176 122.68 96.8493 118.987 96.8493C116.281 96.8545 113.601 96.3254 111.099 95.2925C108.597 94.2595 106.324 92.7429 104.408 90.8294C102.492 88.916 100.972 86.6432 99.9352 84.1412C98.898 81.6391 98.3638 78.9569 98.3632 76.248C98.3712 74.4132 98.0155 72.595 97.3168 70.8986C96.6181 69.2023 95.5903 67.6615 94.2928 66.3655C92.9953 65.0694 91.4538 64.0438 89.7577 63.348C88.0616 62.6522 86.2445 62.3001 84.4115 62.312C80.719 62.312 77.1778 63.7803 74.5669 66.3938C71.9559 69.0074 70.4891 72.5522 70.4891 76.2483C70.4891 79.9445 71.9559 83.4892 74.5669 86.1028C77.1778 88.7164 80.719 90.1847 84.4115 90.1847C89.8698 90.1847 95.1046 92.3552 98.9642 96.2186C102.824 100.082 104.992 105.322 104.992 110.786C104.992 116.25 102.824 121.49 98.9642 125.353C95.1046 129.217 89.8698 131.387 84.4115 131.387C82.5832 131.387 80.7728 131.748 79.0837 132.448C77.3946 133.148 75.8599 134.175 74.5671 135.469C73.2743 136.763 72.2488 138.299 71.5492 139.99C70.8495 141.681 70.4894 143.493 70.4894 145.323C70.4894 149.019 71.9562 152.564 74.5671 155.178C77.178 157.791 80.7191 159.259 84.4115 159.259C86.2445 159.271 88.0616 158.919 89.7577 158.223C91.4538 157.528 92.9953 156.502 94.2928 155.206C95.5903 153.91 96.6181 152.369 97.3168 150.673C98.0155 148.976 98.3712 147.158 98.3632 145.323Z" fill="white"/>
<path d="M271.244 214.398C271.244 206.701 264.997 200.462 257.292 200.462C249.587 200.462 243.34 206.701 243.34 214.398C243.34 222.095 249.587 228.334 257.292 228.334C264.997 228.334 271.244 222.095 271.244 214.398Z" fill="white"/>
<path d="M202.091 214.398C202.091 206.701 195.845 200.462 188.139 200.462C180.434 200.462 174.188 206.701 174.188 214.398C174.188 222.095 180.434 228.334 188.139 228.334C195.845 228.334 202.091 222.095 202.091 214.398Z" fill="white"/>
<path d="M132.939 214.398C132.939 206.701 126.693 200.462 118.987 200.462C111.282 200.462 105.036 206.701 105.036 214.398C105.036 222.095 111.282 228.334 118.987 228.334C126.693 228.334 132.939 222.095 132.939 214.398Z" fill="white"/>
<path d="M60.4509 183.061C60.4509 175.365 54.2045 169.125 46.4991 169.125C38.7938 169.125 32.5474 175.365 32.5474 183.061C32.5474 190.758 38.7938 196.997 46.4992 196.997C54.2045 196.997 60.4509 190.758 60.4509 183.061Z" fill="white"/>
<path d="M167.515 75.8847C167.515 68.188 161.269 61.9487 153.563 61.9487C145.858 61.9487 139.612 68.188 139.612 75.8847C139.612 83.5814 145.858 89.8208 153.563 89.8208C161.269 89.8208 167.515 83.5814 167.515 75.8847Z" fill="white"/>
<path d="M236.667 75.8847C236.667 68.188 230.421 61.9487 222.715 61.9487C215.01 61.9487 208.764 68.188 208.764 75.8847C208.764 83.5814 215.01 89.8208 222.715 89.8208C230.421 89.8208 236.667 83.5814 236.667 75.8847Z" fill="white"/>
<path d="M222.715 131.387C220.009 131.392 217.329 130.863 214.827 129.83C212.325 128.797 210.051 127.28 208.136 125.367C206.22 123.453 204.7 121.181 203.663 118.679C202.626 116.177 202.092 113.494 202.091 110.785C202.091 107.081 200.621 103.529 198.005 100.91C195.388 98.291 191.84 96.8196 188.139 96.8196C184.439 96.8196 180.891 98.291 178.274 100.91C175.658 103.529 174.188 107.081 174.188 110.785C174.187 113.494 173.653 116.177 172.616 118.679C171.578 121.181 170.059 123.453 168.143 125.367C166.227 127.28 163.954 128.797 161.452 129.83C158.95 130.863 156.27 131.392 153.563 131.387C149.871 131.387 146.33 132.855 143.719 135.469C141.108 138.082 139.641 141.627 139.641 145.323C139.641 149.019 141.108 152.564 143.719 155.178C146.33 157.791 149.871 159.259 153.563 159.259C155.396 159.271 157.214 158.919 158.91 158.223C160.606 157.528 162.147 156.502 163.445 155.206C164.742 153.91 165.77 152.369 166.469 150.673C167.167 148.976 167.523 147.158 167.515 145.323C167.515 139.848 169.688 134.597 173.556 130.725C177.424 126.853 182.67 124.678 188.139 124.678C193.609 124.678 198.855 126.853 202.723 130.725C206.591 134.597 208.764 139.848 208.764 145.323C208.758 148.087 209.571 150.79 211.101 153.09C212.63 155.391 214.807 157.186 217.356 158.247C219.905 159.309 222.711 159.59 225.419 159.054C228.127 158.519 230.616 157.191 232.57 155.239C234.524 153.287 235.856 150.798 236.397 148.089C236.938 145.379 236.663 142.569 235.608 140.015C234.553 137.462 232.765 135.279 230.47 133.743C228.175 132.207 225.476 131.387 222.715 131.387Z" fill="white"/>
</g>
</g>
<defs>
<clipPath id="clip0_151_22847">
<rect width="345.986" height="377.326" fill="white" transform="matrix(4.37114e-08 1 1 -4.37114e-08 0.139954 -42.6216)"/>
</clipPath>
<clipPath id="clip1_151_22847">
<rect width="1340.3" height="373.664" fill="white" transform="translate(1.30771 297.41) rotate(-90)"/>
</clipPath>
</defs>
</svg>
