<svg width="196" height="229" viewBox="0 0 196 229" fill="none" xmlns="http://www.w3.org/2000/svg">
<path d="M202.262 214.193C202.274 212.355 201.921 210.533 201.224 208.833C200.526 207.132 199.498 205.587 198.199 204.286C196.9 202.985 195.356 201.955 193.656 201.254C191.955 200.554 190.133 200.197 188.294 200.205C182.825 200.176 177.59 197.985 173.733 194.11C169.876 190.236 167.711 184.993 167.711 179.528C167.711 174.063 169.876 168.82 173.733 164.945C177.59 161.071 182.825 158.879 188.294 158.851C191.991 158.827 195.528 157.343 198.134 154.722C200.74 152.101 202.202 148.557 202.202 144.863C202.202 141.168 200.74 137.624 198.134 135.004C195.528 132.383 191.991 130.899 188.294 130.875C185.579 130.874 182.89 130.339 180.382 129.299C177.875 128.259 175.597 126.735 173.679 124.815C171.761 122.894 170.241 120.614 169.206 118.106C168.17 115.598 167.64 112.911 167.645 110.197C167.645 110.197 167.645 110.193 167.645 110.19C167.645 110.188 167.645 110.186 167.645 110.184C167.64 107.47 168.17 104.783 169.206 102.275C170.241 99.7666 171.761 97.4871 173.679 95.5667C175.597 93.6462 177.875 92.1224 180.383 91.0826C182.89 90.0427 185.579 89.5072 188.294 89.5065C191.637 89.4972 194.866 88.2937 197.399 86.1134C199.932 83.9332 201.601 80.9198 202.105 77.6176C202.609 74.3153 201.915 70.9417 200.148 68.106C198.381 65.2703 195.657 63.1595 192.469 62.1546C191.104 61.7305 189.682 61.5159 188.252 61.5182C185.538 61.5225 182.851 60.9903 180.344 59.9523C177.837 58.9144 175.56 57.3912 173.645 55.4704C171.73 53.5496 170.213 51.2692 169.184 48.7605C168.154 46.2518 167.631 43.5643 167.645 40.8528C167.664 37.867 166.719 34.9545 164.952 32.5467C163.185 30.1388 160.689 28.3636 157.834 27.4838C156.474 27.0633 155.058 26.8505 153.635 26.8526H153.59C151.751 26.8444 149.928 27.2008 148.228 27.9012C146.527 28.6016 144.983 29.6321 143.683 30.933C142.384 32.2339 141.356 33.7795 140.659 35.4801C139.961 37.1808 139.608 39.0028 139.62 40.8407C139.625 43.5537 139.095 46.2411 138.06 48.7491C137.024 51.2572 135.504 53.5366 133.587 55.4571C131.669 57.3776 129.391 58.9014 126.883 59.9413C124.376 60.9812 121.688 61.5169 118.973 61.5176C117.133 61.5097 115.311 61.8662 113.611 62.5668C111.91 63.2673 110.366 64.2979 109.067 65.5989C107.768 66.8999 106.74 68.4454 106.042 70.146C105.345 71.8466 104.992 73.6685 105.004 75.5063C105.004 75.5063 105.004 75.5104 105.004 75.5127C105.004 75.515 105.004 75.5167 105.004 75.519C104.992 77.3567 105.345 79.1785 106.043 80.879C106.74 82.5795 107.768 84.1249 109.067 85.4257C110.366 86.7266 111.911 87.757 113.611 88.4575C115.311 89.158 117.133 89.5145 118.973 89.5065C124.461 89.5065 129.724 91.6851 133.604 95.5629C137.485 99.4406 139.665 104.7 139.665 110.184C139.665 115.668 137.485 120.928 133.604 124.805C129.724 128.683 124.461 130.862 118.973 130.862C116.203 130.856 113.494 131.671 111.188 133.205C108.882 134.738 107.083 136.921 106.019 139.476C104.955 142.031 104.674 144.845 105.211 147.56C105.747 150.275 107.078 152.77 109.035 154.729C110.991 156.688 113.485 158.024 116.201 158.566C118.917 159.108 121.733 158.833 124.293 157.775C126.852 156.717 129.04 154.924 130.58 152.623C132.119 150.322 132.941 147.617 132.941 144.849C132.931 139.444 135.043 134.25 138.824 130.385C142.605 126.519 147.752 124.29 153.16 124.176C153.331 124.182 153.503 124.185 153.676 124.185C159.145 124.214 164.38 126.405 168.237 130.28C172.094 134.154 174.26 139.397 174.26 144.862C174.26 150.327 172.094 155.57 168.237 159.445C164.38 163.319 159.145 165.51 153.676 165.539C149.979 165.563 146.442 167.047 143.836 169.668C141.23 172.289 139.768 175.833 139.768 179.527C139.768 183.221 141.23 186.766 143.836 189.386C146.442 192.007 149.979 193.491 153.676 193.515C156.391 193.516 159.08 194.051 161.588 195.091C164.096 196.131 166.374 197.655 168.291 199.575C170.209 201.496 171.729 203.775 172.765 206.284C173.8 208.792 174.33 211.479 174.325 214.193C174.325 216.025 174.686 217.841 175.388 219.534C176.09 221.227 177.119 222.766 178.416 224.062C179.713 225.358 181.253 226.387 182.948 227.088C184.643 227.789 186.459 228.15 188.293 228.15C190.128 228.15 191.944 227.789 193.639 227.088C195.333 226.387 196.873 225.358 198.17 224.062C199.467 222.766 200.496 221.227 201.198 219.534C201.9 217.841 202.262 216.025 202.262 214.193H202.262ZM174.283 75.5063C174.288 78.2194 173.758 80.9068 172.723 83.4149C171.687 85.9229 170.167 88.2023 168.249 90.1228C166.331 92.0432 164.053 93.5669 161.546 94.6067C159.038 95.6465 156.35 96.1821 153.635 96.1827H153.59C148.149 96.1662 142.934 94.0092 139.073 90.1787C135.212 86.3482 133.016 81.1523 132.961 75.7158C132.905 70.2794 134.994 65.0398 138.776 61.1313C142.558 57.2227 147.728 54.9598 153.167 54.8322C153.336 54.838 153.504 54.8409 153.674 54.8409C156.388 54.8363 159.076 55.3682 161.583 56.406C164.09 57.4438 166.367 58.9669 168.283 60.8877C170.198 62.8085 171.715 65.0891 172.744 67.598C173.774 70.1069 174.297 72.7946 174.283 75.5063ZM132.475 179.688C132.488 177.85 132.135 176.028 131.437 174.327C130.74 172.626 129.712 171.081 128.413 169.78C127.114 168.478 125.569 167.448 123.869 166.747C122.168 166.046 120.345 165.69 118.506 165.698C113.018 165.698 107.755 163.519 103.874 159.642C99.9933 155.764 97.8132 150.504 97.8132 145.02C97.8132 139.536 99.9933 134.277 103.874 130.399C107.755 126.521 113.018 124.343 118.506 124.343C122.203 124.319 125.74 122.835 128.346 120.214C130.952 117.594 132.414 114.049 132.414 110.355C132.414 106.661 130.952 103.116 128.346 100.496C125.74 97.8752 122.203 96.391 118.506 96.3672C115.791 96.3667 113.102 95.8312 110.595 94.7914C108.087 93.7515 105.809 92.2278 103.891 90.3073C101.973 88.3868 100.453 86.1073 99.4176 83.5991C98.3823 81.091 97.852 78.4034 97.8572 75.6903C97.8791 72.3497 96.6955 69.1132 94.5234 66.5738C92.3513 64.0343 89.3361 62.3621 86.0305 61.8636C85.2935 61.7478 84.5487 61.6898 83.8027 61.69C81.0875 61.6895 78.399 61.154 75.8912 60.1141C73.3833 59.0743 71.1052 57.5505 69.1873 55.6299C67.2693 53.7094 65.7492 51.4298 64.7139 48.9216C63.6785 46.4133 63.1482 43.7257 63.1534 41.0125C63.1534 37.3106 61.6818 33.7603 59.0622 31.1427C56.4427 28.5251 52.8898 27.0545 49.1852 27.0545C45.4806 27.0545 41.9277 28.5251 39.3082 31.1427C36.6886 33.7603 35.217 37.3106 35.217 41.0125C35.2051 42.8503 35.5581 44.6721 36.2555 46.3726C36.9529 48.0731 37.9809 49.6185 39.2801 50.9194C40.5792 52.2202 42.1236 53.2507 43.8239 53.9511C45.5242 54.6516 47.3467 55.0081 49.1858 55C54.6738 55 59.9371 57.1785 63.8177 61.0563C67.6983 64.9341 69.8785 70.1935 69.8785 75.6776C69.8785 81.1616 67.6983 86.421 63.8177 90.2988C59.9371 94.1766 54.6738 96.3551 49.1858 96.3551C46.416 96.3491 43.7067 97.1644 41.4008 98.6978C39.095 100.231 37.2962 102.414 36.2321 104.969C35.168 107.524 34.8865 110.338 35.4232 113.053C35.9599 115.768 37.2907 118.263 39.2471 120.223C41.2035 122.182 43.6976 123.517 46.4137 124.059C49.1299 124.601 51.9459 124.326 54.5054 123.268C57.0649 122.21 59.2528 120.418 60.7923 118.117C62.3317 115.816 63.1534 113.11 63.1534 110.343C63.1433 104.937 65.2561 99.7426 69.0378 95.8769C72.8194 92.0112 77.9679 89.7824 83.3766 89.6697C83.5462 89.676 83.7182 89.6789 83.8895 89.6789C89.3586 89.7079 94.5937 91.8991 98.4507 95.7737C102.308 99.6483 104.473 104.891 104.473 110.356C104.473 115.821 102.308 121.064 98.4507 124.939C94.5937 128.813 89.3586 131.005 83.8895 131.033C82.0443 131.031 80.2166 131.392 78.5109 132.096C76.8053 132.799 75.255 133.832 73.9486 135.134C72.6423 136.436 71.6054 137.983 70.8972 139.686C70.189 141.389 69.8234 143.214 69.8212 145.058C69.7922 150.523 67.5994 155.754 63.7219 159.608C59.8445 163.463 54.5978 165.626 49.1287 165.626C43.6597 165.626 38.413 163.463 34.5355 159.608C30.6581 155.754 28.4653 150.523 28.4363 145.058C28.4423 142.29 27.6263 139.583 26.0918 137.278C24.5572 134.974 22.373 133.176 19.8157 132.113C17.2583 131.05 14.4427 130.769 11.7253 131.305C9.00792 131.841 6.51085 133.171 4.55016 135.126C2.58946 137.081 1.25331 139.574 0.7108 142.288C0.168289 145.002 0.443817 147.817 1.50252 150.374C2.56122 152.932 4.35548 155.118 6.65823 156.657C8.96097 158.195 11.6686 159.016 14.4386 159.016C17.1537 159.011 19.8433 159.541 22.3533 160.575C24.8633 161.61 27.1445 163.129 29.0665 165.045C30.9884 166.962 32.5134 169.238 33.554 171.744C34.5947 174.25 35.1307 176.936 35.1313 179.65C35.1313 183.359 36.606 186.917 39.2311 189.54C41.8562 192.163 45.4166 193.637 49.129 193.637C52.8415 193.637 56.4019 192.163 59.0269 189.54C61.652 186.917 63.1268 183.359 63.1268 179.65C63.1275 176.936 63.6635 174.25 64.7042 171.744C65.7449 169.238 67.2699 166.962 69.1919 165.045C71.1139 163.129 73.3952 161.61 75.9053 160.575C78.4153 159.541 81.1049 159.011 83.8201 159.016C83.9447 159.016 84.0688 159.014 84.1923 159.011C89.6226 159.093 94.8022 161.309 98.6097 165.178C102.417 169.048 104.546 174.261 104.536 179.688C104.524 181.528 104.877 183.353 105.573 185.057C106.27 186.761 107.297 188.31 108.595 189.616C109.894 190.922 111.437 191.958 113.138 192.665C114.839 193.372 116.662 193.736 118.504 193.736C120.346 193.736 122.17 193.372 123.871 192.665C125.571 191.958 127.115 190.922 128.414 189.616C129.712 188.31 130.739 186.761 131.436 185.057C132.132 183.353 132.485 181.528 132.473 179.688L132.475 179.688ZM167.604 144.855C167.604 142.089 166.783 139.385 165.245 137.085C163.707 134.785 161.521 132.993 158.963 131.934C156.406 130.876 153.592 130.599 150.876 131.139C148.161 131.678 145.668 133.01 143.71 134.966C141.753 136.922 140.42 139.415 139.88 142.128C139.34 144.841 139.617 147.653 140.676 150.209C141.736 152.764 143.53 154.949 145.831 156.485C148.133 158.022 150.839 158.842 153.607 158.842C155.446 158.842 157.266 158.481 158.964 157.778C160.662 157.075 162.205 156.045 163.505 154.746C164.804 153.447 165.835 151.905 166.539 150.208C167.242 148.511 167.604 146.692 167.604 144.855ZM97.8173 110.35C97.8173 107.584 96.9964 104.88 95.4584 102.58C93.9204 100.28 91.7345 98.487 89.1769 97.4284C86.6194 96.3698 83.8051 96.0928 81.09 96.6325C78.375 97.1722 75.881 98.5042 73.9236 100.46C71.9661 102.416 70.633 104.908 70.093 107.622C69.5529 110.335 69.8301 113.147 70.8895 115.702C71.9488 118.258 73.7428 120.442 76.0446 121.979C78.3463 123.516 81.0524 124.336 83.8207 124.336C87.5326 124.336 91.0925 122.862 93.7172 120.24C96.3419 117.617 97.8165 114.059 97.8167 110.35H97.8173ZM167.604 75.4988C167.604 72.7325 166.783 70.0284 165.245 67.7284C163.707 65.4283 161.521 63.6357 158.964 62.5771C156.406 61.5185 153.592 61.2415 150.877 61.7812C148.162 62.3209 145.668 63.6529 143.71 65.6089C141.753 67.565 140.42 70.0571 139.88 72.7702C139.34 75.4833 139.617 78.2955 140.676 80.8511C141.736 83.4068 143.53 85.5912 145.831 87.128C148.133 88.6649 150.839 89.4851 153.607 89.4851C155.445 89.4851 157.266 89.1234 158.964 88.4205C160.662 87.7176 162.205 86.6874 163.505 85.3886C164.804 84.0899 165.835 82.548 166.539 80.8511C167.242 79.1542 167.604 77.3355 167.604 75.4988ZM97.8167 40.9934C97.8167 38.2272 96.9958 35.5231 95.4578 33.223C93.9199 30.923 91.7339 29.1303 89.1763 28.0717C86.6188 27.0131 83.8045 26.7361 81.0895 27.2758C78.3744 27.8155 75.8804 29.1475 73.923 31.1036C71.9655 33.0596 70.6325 35.5517 70.0924 38.2648C69.5523 40.9779 69.8295 43.7901 70.8889 46.3458C71.9483 48.9014 73.7422 51.0858 76.044 52.6226C78.3457 54.1595 81.0518 54.9798 83.8201 54.9798C87.5322 54.9796 91.0922 53.506 93.717 50.8831C96.3418 48.2602 97.8165 44.7028 97.8167 40.9934ZM167.604 -28.6352C167.604 -32.3446 166.129 -35.9021 163.505 -38.525C160.88 -41.148 157.32 -42.6215 153.607 -42.6215C151.769 -42.6215 149.949 -42.2598 148.251 -41.5569C146.553 -40.854 145.01 -39.8238 143.71 -38.525C142.411 -37.2263 141.38 -35.6844 140.676 -33.9875C139.973 -32.2906 139.611 -30.4719 139.611 -28.6352C139.611 -26.7985 139.973 -24.9797 140.676 -23.2828C141.38 -21.5859 142.411 -20.0441 143.71 -18.7453C145.01 -17.4466 146.553 -16.4164 148.251 -15.7135C149.949 -15.0106 151.769 -14.6488 153.607 -14.6488C155.446 -14.6488 157.266 -15.0105 158.964 -15.7133C160.662 -16.4162 162.205 -17.4464 163.505 -18.7452C164.804 -20.0439 165.835 -21.5858 166.539 -23.2828C167.242 -24.9797 167.604 -26.7985 167.604 -28.6352Z" fill="url(#paint0_linear_151_22848)"/>
<defs>
<linearGradient id="paint0_linear_151_22848" x1="202.265" y1="91.6814" x2="0.439666" y2="91.6814" gradientUnits="userSpaceOnUse">
<stop stop-color="#D31184"/>
<stop offset="1" stop-color="#FDB913"/>
</linearGradient>
</defs>
</svg>
